<svg width="491" height="50" viewBox="0 0 491 50" fill="none" xmlns="http://www.w3.org/2000/svg">
<rect width="490" height="50" transform="translate(0.5)" fill="#002C5F"/>
<path fill-rule="evenodd" clip-rule="evenodd" d="M149.697 27.5035C149.952 28.8425 149.263 29.9546 148.691 31.0342C148.055 32.0385 147.006 32.9018 145.744 32.7726C142.914 32.7294 140.148 32.2867 137.583 31.4982C137.467 31.466 137.35 31.3901 137.286 31.2823C137.233 31.131 137.308 30.9906 137.413 30.8937C139.756 28.9608 142.543 28.0649 145.299 27.1251C146.327 26.8228 147.419 26.4988 148.574 26.6501C149.051 26.7151 149.528 27.05 149.697 27.5035ZM159.353 21.7809C160.667 22.8822 161.854 24.3833 161.451 26.1973C160.794 28.8751 157.933 30.3005 155.654 31.2072C154.414 31.6285 153.163 32.0607 151.807 32.1902C151.722 32.1793 151.584 32.2007 151.563 32.0712L151.594 31.9202C153.523 29.7065 154.986 27.2234 156.269 24.7074C156.862 23.5734 157.414 22.4076 157.922 21.2628C157.996 21.1764 158.071 21.1332 158.155 21.1009C158.632 21.1437 158.971 21.5218 159.353 21.7809ZM140.858 18.9303L140.815 19.0922C138.028 22.3205 136.194 26.0674 134.456 29.7925C134.117 30.1165 133.788 29.6843 133.481 29.5439C131.933 28.5076 130.534 26.8337 130.937 24.8471C131.584 22.2559 134.202 20.8738 136.385 19.9347C137.678 19.438 139.024 19.0384 140.445 18.8117C140.593 18.8113 140.784 18.7899 140.858 18.9303ZM154.69 19.4485C154.848 19.5348 155.039 19.5671 155.135 19.729C155.22 19.9126 155.05 20.0312 154.955 20.1502C152.761 21.8992 150.249 22.8713 147.684 23.7244C146.38 24.0484 145.065 24.6315 143.614 24.3075C143.274 24.2211 142.967 23.9944 142.776 23.6594C142.416 22.6445 142.904 21.5864 143.327 20.7011C143.889 19.5889 144.886 18.2823 146.263 18.2608C149.231 18.2391 152.029 18.6926 154.69 19.4485ZM158.357 19.5348C160.604 20.7874 163.148 22.99 162.883 25.9269C162.575 28.648 160.085 30.5483 157.859 31.6931C151.362 34.8569 142.236 34.9537 135.527 32.1899C133.258 31.229 130.715 29.5769 129.76 27.0932C129.029 25.0524 129.919 22.9254 131.414 21.511C134.541 18.6172 138.526 17.624 142.628 17.0514C147.08 16.5006 151.764 16.9865 155.749 18.3795C156.64 18.7144 157.519 19.0816 158.357 19.5348Z" fill="white"/>
<path d="M173.847 19.704H182.487V21.072H180.759C181.083 21.324 181.335 21.63 181.515 21.99C181.695 22.35 181.785 22.758 181.785 23.214C181.785 23.67 181.701 24.102 181.533 24.51C181.365 24.906 181.125 25.254 180.813 25.554C180.513 25.842 180.141 26.07 179.697 26.238C179.253 26.406 178.755 26.49 178.203 26.49C177.651 26.49 177.153 26.406 176.709 26.238C176.277 26.07 175.905 25.842 175.593 25.554C175.281 25.254 175.041 24.906 174.873 24.51C174.705 24.102 174.621 23.67 174.621 23.214C174.621 22.758 174.711 22.35 174.891 21.99C175.071 21.63 175.323 21.324 175.647 21.072H173.847V19.704ZM185.025 28.362V25.104H182.865V23.682H185.025V21.828H182.991V20.388H185.025V16.518H186.681V28.362H185.025ZM177.213 27.39H178.869V30.522H187.149V31.98H177.969C177.729 31.98 177.543 31.926 177.411 31.818C177.279 31.722 177.213 31.56 177.213 31.332V27.39ZM175.719 17.004H180.705V18.426H175.719V17.004ZM176.223 23.214C176.223 23.754 176.397 24.21 176.745 24.582C177.093 24.954 177.579 25.14 178.203 25.14C178.827 25.14 179.313 24.954 179.661 24.582C180.009 24.21 180.183 23.754 180.183 23.214C180.183 22.674 180.015 22.218 179.679 21.846C179.343 21.474 178.851 21.288 178.203 21.288C177.579 21.288 177.093 21.474 176.745 21.846C176.397 22.218 176.223 22.674 176.223 23.214ZM200.493 31.998V23.484H198.315V31.548H196.713V26.634C196.161 26.958 195.543 27.192 194.859 27.336C194.175 27.48 193.377 27.552 192.465 27.552H190.143C189.651 27.552 189.405 27.336 189.405 26.904V18.12H195.093V19.56H191.007V26.112H193.347C193.995 26.112 194.595 26.064 195.147 25.968C195.711 25.86 196.233 25.674 196.713 25.41V16.788H198.315V22.026H200.493V16.518H202.095V31.998H200.493ZM204.423 18.048H212.253V19.506H209.175C209.175 20.358 209.223 21.144 209.319 21.864C209.427 22.584 209.613 23.25 209.877 23.862C210.153 24.462 210.531 25.014 211.011 25.518C211.491 26.022 212.115 26.484 212.883 26.904L212.019 28.218C211.083 27.714 210.303 27.084 209.679 26.328C209.055 25.572 208.629 24.804 208.401 24.024C208.137 24.876 207.693 25.698 207.069 26.49C206.445 27.27 205.641 27.93 204.657 28.47C204.501 28.266 204.351 28.056 204.207 27.84C204.075 27.624 203.937 27.408 203.793 27.192C204.561 26.748 205.185 26.262 205.665 25.734C206.157 25.194 206.535 24.606 206.799 23.97C207.075 23.334 207.261 22.65 207.357 21.918C207.453 21.174 207.501 20.37 207.501 19.506H204.423V18.048ZM214.557 31.998V16.518H216.213V22.116H218.517V23.574H216.213V31.998H214.557ZM219.046 24.24H225.274V22.422H222.142C221.902 22.422 221.716 22.374 221.584 22.278C221.452 22.182 221.386 22.02 221.386 21.792V17.202H230.836V18.624H223.042V21.036H231.016V22.422H226.948V24.24H233.176V25.644H219.046V24.24ZM221.314 29.856C221.314 28.944 221.734 28.224 222.574 27.696C223.426 27.168 224.608 26.904 226.12 26.904C227.62 26.904 228.79 27.168 229.63 27.696C230.482 28.224 230.908 28.944 230.908 29.856C230.908 30.312 230.8 30.72 230.584 31.08C230.368 31.44 230.05 31.746 229.63 31.998C229.222 32.25 228.718 32.442 228.118 32.574C227.53 32.718 226.864 32.79 226.12 32.79C225.364 32.79 224.686 32.718 224.086 32.574C223.498 32.442 222.994 32.25 222.574 31.998C222.166 31.746 221.854 31.44 221.638 31.08C221.422 30.72 221.314 30.312 221.314 29.856ZM222.97 29.856C222.97 30.348 223.234 30.726 223.762 30.99C224.29 31.266 225.076 31.404 226.12 31.404C227.14 31.404 227.914 31.266 228.442 30.99C228.982 30.726 229.252 30.348 229.252 29.856C229.252 29.352 228.982 28.968 228.442 28.704C227.914 28.428 227.14 28.29 226.12 28.29C225.076 28.29 224.29 28.428 223.762 28.704C223.234 28.968 222.97 29.352 222.97 29.856ZM234.496 20.586H242.326V22.008H239.266C239.35 22.596 239.47 23.142 239.626 23.646C239.782 24.15 239.998 24.618 240.274 25.05C240.55 25.47 240.904 25.86 241.336 26.22C241.768 26.568 242.308 26.886 242.956 27.174L242.146 28.488C241.69 28.296 241.258 28.062 240.85 27.786C240.454 27.498 240.094 27.186 239.77 26.85C239.458 26.514 239.188 26.166 238.96 25.806C238.744 25.434 238.582 25.056 238.474 24.672C238.246 25.5 237.796 26.28 237.124 27.012C236.464 27.732 235.648 28.308 234.676 28.74L233.866 27.444C234.502 27.156 235.036 26.826 235.468 26.454C235.9 26.082 236.254 25.668 236.53 25.212C236.818 24.756 237.04 24.264 237.196 23.736C237.352 23.196 237.472 22.62 237.556 22.008H234.496V20.586ZM244.63 31.998V16.518H246.286V22.242H248.59V23.7H246.286V31.998H244.63ZM235.864 17.58H240.958V19.038H235.864V17.58ZM258.503 24.438H261.023V21.594H258.899C258.275 24.402 256.481 26.58 253.517 28.128L252.689 26.796C254.261 26.004 255.461 24.996 256.289 23.772C257.129 22.536 257.549 21.132 257.549 19.56H253.337V18.12H259.151V19.2C259.151 19.344 259.145 19.512 259.133 19.704C259.133 19.896 259.121 20.058 259.097 20.19H261.023V16.788H262.607V31.548H261.023V25.842H258.503V24.438ZM264.425 31.998V16.518H266.027V31.998H264.425ZM275.987 32.484C275.231 32.484 274.553 32.406 273.953 32.25C273.365 32.094 272.867 31.872 272.459 31.584C272.063 31.308 271.757 30.972 271.541 30.576C271.325 30.192 271.217 29.766 271.217 29.298C271.217 28.83 271.325 28.398 271.541 28.002C271.757 27.606 272.063 27.264 272.459 26.976C272.867 26.688 273.365 26.466 273.953 26.31C274.553 26.154 275.231 26.076 275.987 26.076C276.743 26.076 277.415 26.154 278.003 26.31C278.591 26.466 279.089 26.688 279.497 26.976C279.905 27.264 280.211 27.606 280.415 28.002C280.631 28.398 280.739 28.83 280.739 29.298C280.739 29.766 280.631 30.192 280.415 30.576C280.211 30.972 279.905 31.308 279.497 31.584C279.089 31.872 278.591 32.094 278.003 32.25C277.415 32.406 276.743 32.484 275.987 32.484ZM268.499 17.4H276.257V18.858H273.215C273.215 18.978 273.221 19.092 273.233 19.2C273.257 19.308 273.281 19.422 273.305 19.542C273.389 20.55 273.725 21.378 274.313 22.026C274.901 22.674 275.759 23.22 276.887 23.664L276.149 24.978C275.177 24.63 274.367 24.156 273.719 23.556C273.083 22.956 272.663 22.296 272.459 21.576C272.243 22.368 271.811 23.1 271.163 23.772C270.515 24.432 269.669 24.972 268.625 25.392C268.493 25.164 268.367 24.942 268.247 24.726C268.127 24.51 268.001 24.288 267.869 24.06C269.105 23.58 270.023 22.902 270.623 22.026C271.235 21.15 271.541 20.094 271.541 18.858H268.499V17.4ZM275.951 20.28H279.029V16.518H280.685V25.554H279.029V21.72H275.951V20.28ZM275.987 31.044C277.007 31.044 277.775 30.876 278.291 30.54C278.819 30.216 279.083 29.802 279.083 29.298C279.083 28.77 278.819 28.344 278.291 28.02C277.775 27.684 277.007 27.516 275.987 27.516C274.955 27.516 274.175 27.684 273.647 28.02C273.131 28.344 272.873 28.77 272.873 29.298C272.873 29.802 273.131 30.216 273.647 30.54C274.175 30.876 274.955 31.044 275.987 31.044ZM282.977 28.488H297.107V29.946H282.977V28.488ZM284.939 21.594C284.939 20.922 285.071 20.328 285.335 19.812C285.599 19.296 285.959 18.864 286.415 18.516C286.883 18.168 287.423 17.904 288.035 17.724C288.659 17.544 289.331 17.454 290.051 17.454C290.759 17.454 291.419 17.544 292.031 17.724C292.655 17.904 293.195 18.168 293.651 18.516C294.119 18.864 294.485 19.296 294.749 19.812C295.013 20.328 295.145 20.922 295.145 21.594C295.145 22.266 295.013 22.86 294.749 23.376C294.485 23.892 294.119 24.324 293.651 24.672C293.195 25.02 292.655 25.284 292.031 25.464C291.419 25.644 290.759 25.734 290.051 25.734C289.331 25.734 288.659 25.644 288.035 25.464C287.423 25.284 286.883 25.02 286.415 24.672C285.959 24.324 285.599 23.892 285.335 23.376C285.071 22.86 284.939 22.266 284.939 21.594ZM286.613 21.594C286.613 22.026 286.703 22.41 286.883 22.746C287.063 23.082 287.309 23.364 287.621 23.592C287.933 23.82 288.293 23.994 288.701 24.114C289.121 24.222 289.571 24.276 290.051 24.276C290.519 24.276 290.963 24.222 291.383 24.114C291.803 23.994 292.163 23.82 292.463 23.592C292.775 23.364 293.021 23.082 293.201 22.746C293.381 22.41 293.471 22.026 293.471 21.594C293.471 21.162 293.381 20.778 293.201 20.442C293.021 20.106 292.775 19.824 292.463 19.596C292.163 19.368 291.803 19.194 291.383 19.074C290.963 18.954 290.519 18.894 290.051 18.894C289.571 18.894 289.121 18.954 288.701 19.074C288.293 19.194 287.933 19.368 287.621 19.596C287.309 19.824 287.063 20.106 286.883 20.442C286.703 20.778 286.613 21.162 286.613 21.594ZM298.014 28.704H304.242V25.95H300.966C300.726 25.95 300.54 25.902 300.408 25.806C300.276 25.71 300.21 25.548 300.21 25.32V21.198H308.292V19.236H300.21V17.832H309.948V22.548H301.866V24.564H310.254V25.95H305.916V28.704H312.144V30.144H298.014V28.704ZM316.836 28.704H323.064V25.95H319.788C319.548 25.95 319.362 25.902 319.23 25.806C319.098 25.71 319.032 25.548 319.032 25.32V21.198H327.114V19.236H319.032V17.832H328.77V22.548H320.688V24.564H329.076V25.95H324.738V28.704H330.966V30.144H316.836V28.704ZM331.873 28.236H340.855C341.287 27.084 341.593 25.86 341.773 24.564C341.965 23.256 342.061 21.996 342.061 20.784V19.542H333.889V18.084H343.735V20.262C343.735 21.774 343.627 23.19 343.411 24.51C343.207 25.83 342.859 27.072 342.367 28.236H346.003V29.712H331.873V28.236ZM350.257 26.634H351.913V30.522H360.049V31.98H351.013C350.773 31.98 350.587 31.926 350.455 31.818C350.323 31.722 350.257 31.56 350.257 31.332V26.634ZM357.925 27.912V16.518H359.581V27.912H357.925ZM347.323 21.36C347.323 20.784 347.419 20.256 347.611 19.776C347.815 19.284 348.097 18.858 348.457 18.498C348.817 18.138 349.249 17.862 349.753 17.67C350.269 17.466 350.839 17.364 351.463 17.364C352.087 17.364 352.651 17.466 353.155 17.67C353.659 17.862 354.091 18.138 354.451 18.498C354.811 18.858 355.087 19.284 355.279 19.776C355.483 20.256 355.585 20.784 355.585 21.36C355.585 21.936 355.483 22.47 355.279 22.962C355.087 23.454 354.811 23.88 354.451 24.24C354.091 24.6 353.659 24.882 353.155 25.086C352.651 25.278 352.087 25.374 351.463 25.374C350.839 25.374 350.269 25.278 349.753 25.086C349.249 24.882 348.817 24.6 348.457 24.24C348.097 23.88 347.815 23.454 347.611 22.962C347.419 22.47 347.323 21.936 347.323 21.36ZM348.997 21.36C348.997 21.732 349.057 22.074 349.177 22.386C349.297 22.698 349.465 22.968 349.681 23.196C349.897 23.424 350.155 23.604 350.455 23.736C350.767 23.868 351.103 23.934 351.463 23.934C351.835 23.934 352.171 23.868 352.471 23.736C352.783 23.604 353.047 23.424 353.263 23.196C353.479 22.968 353.647 22.698 353.767 22.386C353.887 22.074 353.947 21.732 353.947 21.36C353.947 21 353.887 20.664 353.767 20.352C353.647 20.028 353.479 19.752 353.263 19.524C353.047 19.296 352.783 19.116 352.471 18.984C352.171 18.852 351.835 18.786 351.463 18.786C351.103 18.786 350.767 18.852 350.455 18.984C350.155 19.116 349.897 19.296 349.681 19.524C349.465 19.752 349.297 20.028 349.177 20.352C349.057 20.664 348.997 21 348.997 21.36Z" fill="white"/>
</svg>
