<svg width="491" height="50" viewBox="0 0 491 50" fill="none" xmlns="http://www.w3.org/2000/svg">
<rect width="490" height="50" transform="translate(0.5)" fill="#03C75A"/>
<circle cx="146.5" cy="25" r="18" fill="#03C75A"/>
<path d="M148.906 25.4796L143.9 18.25H139.75V31.75H144.094V24.5204L149.1 31.75H153.25V18.25H148.906V25.4796Z" fill="white"/>
<path d="M196.947 31.548V22.746H193.635V21.288H196.947V16.788H198.531V31.548H196.947ZM200.493 31.998V16.518H202.095V31.998H200.493ZM191.007 17.976V25.968H192.267C192.879 25.968 193.449 25.938 193.977 25.878C194.517 25.806 195.009 25.674 195.453 25.482L195.759 26.67C195.195 26.982 194.571 27.186 193.887 27.282C193.215 27.366 192.441 27.408 191.565 27.408H190.143C189.651 27.408 189.405 27.198 189.405 26.778V17.976H191.007ZM206.223 22.944C206.223 23.376 206.265 23.814 206.349 24.258C206.445 24.69 206.583 25.086 206.763 25.446C206.955 25.794 207.201 26.082 207.501 26.31C207.801 26.526 208.167 26.634 208.599 26.634C209.031 26.634 209.397 26.526 209.697 26.31C210.009 26.082 210.255 25.794 210.435 25.446C210.627 25.086 210.765 24.69 210.849 24.258C210.945 23.814 210.993 23.376 210.993 22.944C210.993 22.512 210.945 22.08 210.849 21.648C210.765 21.204 210.627 20.808 210.435 20.46C210.255 20.1 210.009 19.812 209.697 19.596C209.397 19.368 209.031 19.254 208.599 19.254C208.167 19.254 207.801 19.368 207.501 19.596C207.201 19.812 206.955 20.1 206.763 20.46C206.583 20.808 206.445 21.204 206.349 21.648C206.265 22.08 206.223 22.512 206.223 22.944ZM212.631 22.944C212.631 23.58 212.559 24.21 212.415 24.834C212.271 25.446 212.037 25.992 211.713 26.472C211.389 26.952 210.969 27.342 210.453 27.642C209.949 27.93 209.331 28.074 208.599 28.074C207.867 28.074 207.243 27.93 206.727 27.642C206.223 27.342 205.809 26.952 205.485 26.472C205.161 25.992 204.927 25.446 204.783 24.834C204.639 24.21 204.567 23.58 204.567 22.944C204.567 22.308 204.639 21.684 204.783 21.072C204.927 20.448 205.161 19.896 205.485 19.416C205.809 18.936 206.223 18.552 206.727 18.264C207.243 17.964 207.867 17.814 208.599 17.814C209.331 17.814 209.949 17.964 210.453 18.264C210.969 18.552 211.389 18.936 211.713 19.416C212.037 19.896 212.271 20.448 212.415 21.072C212.559 21.684 212.631 22.308 212.631 22.944ZM215.025 31.998V16.518H216.681V31.998H215.025ZM230.134 31.998V23.592H227.002V27.912H220.63C220.138 27.912 219.892 27.696 219.892 27.264V17.85H221.512V21.306H225.382V17.85H227.002V22.134H230.134V16.518H231.79V31.998H230.134ZM225.382 26.472V22.746H221.512V26.472H225.382ZM243.466 24.438H245.986V21.594H243.862C243.238 24.402 241.444 26.58 238.48 28.128L237.652 26.796C239.224 26.004 240.424 24.996 241.252 23.772C242.092 22.536 242.512 21.132 242.512 19.56H238.3V18.12H244.114V19.2C244.114 19.344 244.108 19.512 244.096 19.704C244.096 19.896 244.084 20.058 244.06 20.19H245.986V16.788H247.57V31.548H245.986V25.842H243.466V24.438ZM249.388 31.998V16.518H250.99V31.998H249.388ZM260.951 32.484C260.195 32.484 259.517 32.406 258.917 32.25C258.329 32.094 257.831 31.872 257.423 31.584C257.027 31.308 256.721 30.972 256.505 30.576C256.289 30.192 256.181 29.766 256.181 29.298C256.181 28.83 256.289 28.398 256.505 28.002C256.721 27.606 257.027 27.264 257.423 26.976C257.831 26.688 258.329 26.466 258.917 26.31C259.517 26.154 260.195 26.076 260.951 26.076C261.707 26.076 262.379 26.154 262.967 26.31C263.555 26.466 264.053 26.688 264.461 26.976C264.869 27.264 265.175 27.606 265.379 28.002C265.595 28.398 265.703 28.83 265.703 29.298C265.703 29.766 265.595 30.192 265.379 30.576C265.175 30.972 264.869 31.308 264.461 31.584C264.053 31.872 263.555 32.094 262.967 32.25C262.379 32.406 261.707 32.484 260.951 32.484ZM253.463 17.4H261.221V18.858H258.179C258.179 18.978 258.185 19.092 258.197 19.2C258.221 19.308 258.245 19.422 258.269 19.542C258.353 20.55 258.689 21.378 259.277 22.026C259.865 22.674 260.723 23.22 261.851 23.664L261.113 24.978C260.141 24.63 259.331 24.156 258.683 23.556C258.047 22.956 257.627 22.296 257.423 21.576C257.207 22.368 256.775 23.1 256.127 23.772C255.479 24.432 254.633 24.972 253.589 25.392C253.457 25.164 253.331 24.942 253.211 24.726C253.091 24.51 252.965 24.288 252.833 24.06C254.069 23.58 254.987 22.902 255.587 22.026C256.199 21.15 256.505 20.094 256.505 18.858H253.463V17.4ZM260.915 20.28H263.993V16.518H265.649V25.554H263.993V21.72H260.915V20.28ZM260.951 31.044C261.971 31.044 262.739 30.876 263.255 30.54C263.783 30.216 264.047 29.802 264.047 29.298C264.047 28.77 263.783 28.344 263.255 28.02C262.739 27.684 261.971 27.516 260.951 27.516C259.919 27.516 259.139 27.684 258.611 28.02C258.095 28.344 257.837 28.77 257.837 29.298C257.837 29.802 258.095 30.216 258.611 30.54C259.139 30.876 259.919 31.044 260.951 31.044ZM267.941 28.488H282.071V29.946H267.941V28.488ZM269.903 21.594C269.903 20.922 270.035 20.328 270.299 19.812C270.563 19.296 270.923 18.864 271.379 18.516C271.847 18.168 272.387 17.904 272.999 17.724C273.623 17.544 274.295 17.454 275.015 17.454C275.723 17.454 276.383 17.544 276.995 17.724C277.619 17.904 278.159 18.168 278.615 18.516C279.083 18.864 279.449 19.296 279.713 19.812C279.977 20.328 280.109 20.922 280.109 21.594C280.109 22.266 279.977 22.86 279.713 23.376C279.449 23.892 279.083 24.324 278.615 24.672C278.159 25.02 277.619 25.284 276.995 25.464C276.383 25.644 275.723 25.734 275.015 25.734C274.295 25.734 273.623 25.644 272.999 25.464C272.387 25.284 271.847 25.02 271.379 24.672C270.923 24.324 270.563 23.892 270.299 23.376C270.035 22.86 269.903 22.266 269.903 21.594ZM271.577 21.594C271.577 22.026 271.667 22.41 271.847 22.746C272.027 23.082 272.273 23.364 272.585 23.592C272.897 23.82 273.257 23.994 273.665 24.114C274.085 24.222 274.535 24.276 275.015 24.276C275.483 24.276 275.927 24.222 276.347 24.114C276.767 23.994 277.127 23.82 277.427 23.592C277.739 23.364 277.985 23.082 278.165 22.746C278.345 22.41 278.435 22.026 278.435 21.594C278.435 21.162 278.345 20.778 278.165 20.442C277.985 20.106 277.739 19.824 277.427 19.596C277.127 19.368 276.767 19.194 276.347 19.074C275.927 18.954 275.483 18.894 275.015 18.894C274.535 18.894 274.085 18.954 273.665 19.074C273.257 19.194 272.897 19.368 272.585 19.596C272.273 19.824 272.027 20.106 271.847 20.442C271.667 20.778 271.577 21.162 271.577 21.594ZM282.977 28.704H289.205V25.95H285.929C285.689 25.95 285.503 25.902 285.371 25.806C285.239 25.71 285.173 25.548 285.173 25.32V21.198H293.255V19.236H285.173V17.832H294.911V22.548H286.829V24.564H295.217V25.95H290.879V28.704H297.107V30.144H282.977V28.704ZM301.8 28.704H308.028V25.95H304.752C304.512 25.95 304.326 25.902 304.194 25.806C304.062 25.71 303.996 25.548 303.996 25.32V21.198H312.078V19.236H303.996V17.832H313.734V22.548H305.652V24.564H314.04V25.95H309.702V28.704H315.93V30.144H301.8V28.704ZM316.836 28.236H325.818C326.25 27.084 326.556 25.86 326.736 24.564C326.928 23.256 327.024 21.996 327.024 20.784V19.542H318.852V18.084H328.698V20.262C328.698 21.774 328.59 23.19 328.374 24.51C328.17 25.83 327.822 27.072 327.33 28.236H330.966V29.712H316.836V28.236ZM335.221 26.634H336.877V30.522H345.013V31.98H335.977C335.737 31.98 335.551 31.926 335.419 31.818C335.287 31.722 335.221 31.56 335.221 31.332V26.634ZM342.889 27.912V16.518H344.545V27.912H342.889ZM332.287 21.36C332.287 20.784 332.383 20.256 332.575 19.776C332.779 19.284 333.061 18.858 333.421 18.498C333.781 18.138 334.213 17.862 334.717 17.67C335.233 17.466 335.803 17.364 336.427 17.364C337.051 17.364 337.615 17.466 338.119 17.67C338.623 17.862 339.055 18.138 339.415 18.498C339.775 18.858 340.051 19.284 340.243 19.776C340.447 20.256 340.549 20.784 340.549 21.36C340.549 21.936 340.447 22.47 340.243 22.962C340.051 23.454 339.775 23.88 339.415 24.24C339.055 24.6 338.623 24.882 338.119 25.086C337.615 25.278 337.051 25.374 336.427 25.374C335.803 25.374 335.233 25.278 334.717 25.086C334.213 24.882 333.781 24.6 333.421 24.24C333.061 23.88 332.779 23.454 332.575 22.962C332.383 22.47 332.287 21.936 332.287 21.36ZM333.961 21.36C333.961 21.732 334.021 22.074 334.141 22.386C334.261 22.698 334.429 22.968 334.645 23.196C334.861 23.424 335.119 23.604 335.419 23.736C335.731 23.868 336.067 23.934 336.427 23.934C336.799 23.934 337.135 23.868 337.435 23.736C337.747 23.604 338.011 23.424 338.227 23.196C338.443 22.968 338.611 22.698 338.731 22.386C338.851 22.074 338.911 21.732 338.911 21.36C338.911 21 338.851 20.664 338.731 20.352C338.611 20.028 338.443 19.752 338.227 19.524C338.011 19.296 337.747 19.116 337.435 18.984C337.135 18.852 336.799 18.786 336.427 18.786C336.067 18.786 335.731 18.852 335.419 18.984C335.119 19.116 334.861 19.296 334.645 19.524C334.429 19.752 334.261 20.028 334.141 20.352C334.021 20.664 333.961 21 333.961 21.36Z" fill="white"/>
</svg>
