<svg width="200" height="200" viewBox="0 0 200 200" fill="none" xmlns="http://www.w3.org/2000/svg">
<g clip-path="url(#clip0_3099_397)">
<g filter="url(#filter0_bd_3099_397)">
<path d="M5.94021 90.314C5.73094 88.096 7.21032 86.0708 9.38692 85.5957L169.317 50.6847C171.665 50.1722 173.99 51.6355 174.544 53.9738L187.284 107.769C187.843 110.13 186.388 112.499 184.029 113.067L16.9416 153.349C14.3341 153.977 11.7747 152.15 11.5227 149.479L5.94021 90.314Z" fill="url(#paint0_linear_3099_397)" fill-opacity="0.5"/>
<path d="M6.438 90.267C6.25248 88.3007 7.56397 86.5054 9.49355 86.0842L169.423 51.1732C171.505 50.7189 173.566 52.0161 174.057 54.089L186.797 107.884C187.293 109.977 186.003 112.077 183.912 112.581L16.8244 152.863C14.5129 153.42 12.2439 151.8 12.0205 149.432L6.438 90.267Z" stroke="url(#paint1_linear_3099_397)"/>
</g>
<g filter="url(#filter1_bdi_3099_397)">
<path d="M174.27 52.8232C176.482 52.2992 178.701 53.6682 179.225 55.8809L190.374 102.958C190.898 105.171 189.529 107.389 187.316 107.914L174.27 52.8232Z" fill="url(#paint2_linear_3099_397)" fill-opacity="0.5"/>
<path d="M174.511 52.9767C176.55 52.6008 178.547 53.887 179.03 55.927L190.18 103.004C190.663 105.044 189.455 107.089 187.464 107.668L174.511 52.9767Z" stroke="url(#paint3_linear_3099_397)" stroke-width="0.4"/>
</g>
<g filter="url(#filter2_bdi_3099_397)">
<rect x="23.3906" y="99.1338" width="87.4946" height="40.1446" rx="4.4058" transform="rotate(-13.3238 23.3906 99.1338)" fill="url(#paint4_linear_3099_397)" fill-opacity="0.5"/>
<rect x="23.6915" y="99.3194" width="86.9946" height="39.6446" rx="4.1558" transform="rotate(-13.3238 23.6915 99.3194)" stroke="url(#paint5_linear_3099_397)" stroke-width="0.5"/>
</g>
<rect x="105.975" y="63.708" width="1.02935" height="68.9664" transform="rotate(-13.3238 105.975 63.708)" fill="url(#paint6_linear_3099_397)"/>
<rect x="100.967" y="64.894" width="1.02935" height="68.9664" transform="rotate(-13.3238 100.967 64.894)" fill="url(#paint7_linear_3099_397)"/>
<g filter="url(#filter3_bii_3099_397)">
<rect x="100.693" y="63.1191" width="6.17609" height="71.025" rx="1.10145" transform="rotate(-13.3238 100.693 63.1191)" fill="#52565B"/>
</g>
<g opacity="0.6" filter="url(#filter4_bd_3099_397)">
<path d="M36.7724 102.153L39.0902 101.532C39.5279 101.415 39.9529 101.383 40.3651 101.436C40.7822 101.48 41.1649 101.609 41.5132 101.821C41.8682 102.032 42.1788 102.329 42.445 102.712C42.7161 103.087 42.9246 103.547 43.0703 104.091C43.216 104.635 43.2661 105.14 43.2207 105.607C43.1801 106.066 43.0588 106.475 42.8566 106.835C42.6611 107.193 42.3948 107.499 42.0577 107.753C41.7254 107.998 41.3404 108.179 40.9027 108.297L38.5849 108.918L36.7724 102.153ZM37.7873 102.638L39.2213 107.99L40.6538 107.606C40.9986 107.514 41.2952 107.374 41.5435 107.187C41.7919 106.999 41.9853 106.766 42.1238 106.487C42.2624 106.209 42.3403 105.889 42.3575 105.529C42.3796 105.161 42.3321 104.758 42.2148 104.32C42.0975 103.882 41.9381 103.513 41.7365 103.211C41.5397 102.902 41.3117 102.661 41.0523 102.488C40.7929 102.316 40.5089 102.211 40.2001 102.173C39.8914 102.135 39.5646 102.162 39.2198 102.254L37.7873 102.638Z" fill="url(#paint8_linear_3099_397)" fill-opacity="0.5"/>
</g>
<g opacity="0.6" filter="url(#filter5_bd_3099_397)">
<path d="M39.7158 113.14L40.4419 112.945L44.8964 116.677C45.077 116.821 45.2384 116.959 45.3805 117.091C45.5226 117.224 45.6167 117.323 45.6628 117.389L45.6927 117.381C45.6532 117.313 45.6011 117.185 45.5363 116.996C45.4781 116.806 45.4188 116.598 45.3584 116.372L44.1723 111.946L44.9979 111.724L46.8105 118.489L46.0843 118.683L41.6298 114.951C41.4492 114.808 41.2878 114.67 41.1457 114.537C41.0036 114.405 40.9095 114.305 40.8634 114.24L40.8336 114.248C40.873 114.315 40.9218 114.444 40.98 114.635C41.0448 114.824 41.1074 115.031 41.1678 115.256L42.3539 119.683L41.5283 119.904L39.7158 113.14Z" fill="url(#paint9_linear_3099_397)" fill-opacity="0.5"/>
</g>
<g opacity="0.6" filter="url(#filter6_bd_3099_397)">
<path d="M45.4257 126.574L44.2817 126.88L45.0707 129.825L44.2451 130.046L42.4325 123.282L44.8896 122.623C45.1947 122.542 45.4848 122.51 45.7599 122.529C46.0416 122.546 46.2942 122.613 46.5177 122.731C46.746 122.84 46.9419 123.001 47.1054 123.213C47.2688 123.425 47.3905 123.68 47.4705 123.979C47.6127 124.509 47.5781 124.977 47.3667 125.382C47.1553 125.787 46.8107 126.092 46.3329 126.299L49.4795 128.611L49.4875 128.641L48.4828 128.911L45.4257 126.574ZM45.6443 125.758C46.5065 125.527 46.83 125.01 46.615 124.208C46.4 123.406 45.8614 123.12 44.9993 123.351L43.4475 123.767L44.0925 126.174L45.6443 125.758Z" fill="url(#paint10_linear_3099_397)" fill-opacity="0.5"/>
</g>
<g opacity="0.6" filter="url(#filter7_bd_3099_397)">
<path d="M61.0372 109.57C61.2096 110.213 61.1497 110.758 60.8574 111.206C60.5718 111.652 60.0908 111.966 59.4143 112.147L57.9918 112.529L58.7328 115.294L57.9072 115.515L56.0947 108.751L58.3428 108.148C59.0193 107.967 59.5927 107.998 60.0631 108.242C60.5401 108.484 60.8649 108.926 61.0372 109.57ZM60.1817 109.799C60.0698 109.381 59.8684 109.094 59.5777 108.937C59.2851 108.774 58.9035 108.755 58.4326 108.881L57.1096 109.236L57.8026 111.822L59.1256 111.468C59.5965 111.342 59.9186 111.138 60.0921 110.857C60.2638 110.569 60.2937 110.217 60.1817 109.799Z" fill="url(#paint11_linear_3099_397)" fill-opacity="0.5"/>
</g>
<g opacity="0.6" filter="url(#filter8_bd_3099_397)">
<path d="M63.3914 110.034L68.4341 104.991L70.2799 111.88L63.3914 110.034Z" fill="url(#paint12_linear_3099_397)" fill-opacity="0.5"/>
</g>
</g>
<defs>
<filter id="filter0_bd_3099_397" x="-15.1801" y="27.4825" width="235.684" height="157.09" filterUnits="userSpaceOnUse" color-interpolation-filters="sRGB">
<feFlood flood-opacity="0" result="BackgroundImageFix"/>
<feGaussianBlur in="BackgroundImageFix" stdDeviation="9.91304"/>
<feComposite in2="SourceAlpha" operator="in" result="effect1_backgroundBlur_3099_397"/>
<feColorMatrix in="SourceAlpha" type="matrix" values="0 0 0 0 0 0 0 0 0 0 0 0 0 0 0 0 0 0 127 0" result="hardAlpha"/>
<feOffset dx="6" dy="4"/>
<feGaussianBlur stdDeviation="13.55"/>
<feColorMatrix type="matrix" values="0 0 0 0 0.41688 0 0 0 0 0.710716 0 0 0 0 0.873958 0 0 0 0.28 0"/>
<feBlend mode="normal" in2="effect1_backgroundBlur_3099_397" result="effect2_dropShadow_3099_397"/>
<feBlend mode="normal" in="SourceGraphic" in2="effect2_dropShadow_3099_397" result="shape"/>
</filter>
<filter id="filter1_bdi_3099_397" x="154.443" y="32.0593" width="99.6516" height="127.898" filterUnits="userSpaceOnUse" color-interpolation-filters="sRGB">
<feFlood flood-opacity="0" result="BackgroundImageFix"/>
<feGaussianBlur in="BackgroundImageFix" stdDeviation="9.91304"/>
<feComposite in2="SourceAlpha" operator="in" result="effect1_backgroundBlur_3099_397"/>
<feColorMatrix in="SourceAlpha" type="matrix" values="0 0 0 0 0 0 0 0 0 0 0 0 0 0 0 0 0 0 127 0" result="hardAlpha"/>
<feOffset dx="27.2609" dy="15.6957"/>
<feGaussianBlur stdDeviation="18.1739"/>
<feColorMatrix type="matrix" values="0 0 0 0 0.0766667 0 0 0 0 0.180933 0 0 0 0 0.383333 0 0 0 0.15 0"/>
<feBlend mode="normal" in2="effect1_backgroundBlur_3099_397" result="effect2_dropShadow_3099_397"/>
<feBlend mode="normal" in="SourceGraphic" in2="effect2_dropShadow_3099_397" result="shape"/>
<feColorMatrix in="SourceAlpha" type="matrix" values="0 0 0 0 0 0 0 0 0 0 0 0 0 0 0 0 0 0 127 0" result="hardAlpha"/>
<feOffset dx="2.2029" dy="2.2029"/>
<feGaussianBlur stdDeviation="3.13913"/>
<feComposite in2="hardAlpha" operator="arithmetic" k2="-1" k3="1"/>
<feColorMatrix type="matrix" values="0 0 0 0 0 0 0 0 0 0 0 0 0 0 0 0 0 0 0.19 0"/>
<feBlend mode="normal" in2="shape" result="effect3_innerShadow_3099_397"/>
</filter>
<filter id="filter2_bdi_3099_397" x="4.46103" y="59.2138" width="176.034" height="130.132" filterUnits="userSpaceOnUse" color-interpolation-filters="sRGB">
<feFlood flood-opacity="0" result="BackgroundImageFix"/>
<feGaussianBlur in="BackgroundImageFix" stdDeviation="9.91304"/>
<feComposite in2="SourceAlpha" operator="in" result="effect1_backgroundBlur_3099_397"/>
<feColorMatrix in="SourceAlpha" type="matrix" values="0 0 0 0 0 0 0 0 0 0 0 0 0 0 0 0 0 0 127 0" result="hardAlpha"/>
<feOffset dx="27.2609" dy="15.6957"/>
<feGaussianBlur stdDeviation="18.1739"/>
<feColorMatrix type="matrix" values="0 0 0 0 0.0766667 0 0 0 0 0.180933 0 0 0 0 0.383333 0 0 0 0.15 0"/>
<feBlend mode="normal" in2="effect1_backgroundBlur_3099_397" result="effect2_dropShadow_3099_397"/>
<feBlend mode="normal" in="SourceGraphic" in2="effect2_dropShadow_3099_397" result="shape"/>
<feColorMatrix in="SourceAlpha" type="matrix" values="0 0 0 0 0 0 0 0 0 0 0 0 0 0 0 0 0 0 127 0" result="hardAlpha"/>
<feOffset dx="3.30435" dy="4.4058"/>
<feGaussianBlur stdDeviation="2.2029"/>
<feComposite in2="hardAlpha" operator="arithmetic" k2="-1" k3="1"/>
<feColorMatrix type="matrix" values="0 0 0 0 0 0 0 0 0 0 0 0 0 0 0 0 0 0 0.25 0"/>
<feBlend mode="normal" in2="shape" result="effect3_innerShadow_3099_397"/>
</filter>
<filter id="filter3_bii_3099_397" x="87.7006" y="48.7023" width="48.3645" height="96.5236" filterUnits="userSpaceOnUse" color-interpolation-filters="sRGB">
<feFlood flood-opacity="0" result="BackgroundImageFix"/>
<feGaussianBlur in="BackgroundImageFix" stdDeviation="6.6087"/>
<feComposite in2="SourceAlpha" operator="in" result="effect1_backgroundBlur_3099_397"/>
<feBlend mode="normal" in="SourceGraphic" in2="effect1_backgroundBlur_3099_397" result="shape"/>
<feColorMatrix in="SourceAlpha" type="matrix" values="0 0 0 0 0 0 0 0 0 0 0 0 0 0 0 0 0 0 127 0" result="hardAlpha"/>
<feOffset dx="1.10145"/>
<feGaussianBlur stdDeviation="1.65217"/>
<feComposite in2="hardAlpha" operator="arithmetic" k2="-1" k3="1"/>
<feColorMatrix type="matrix" values="0 0 0 0 0 0 0 0 0 0.0705882 0 0 0 0 0.14902 0 0 0 0.55 0"/>
<feBlend mode="normal" in2="shape" result="effect2_innerShadow_3099_397"/>
<feColorMatrix in="SourceAlpha" type="matrix" values="0 0 0 0 0 0 0 0 0 0 0 0 0 0 0 0 0 0 127 0" result="hardAlpha"/>
<feOffset dx="-1.10145"/>
<feGaussianBlur stdDeviation="2.2029"/>
<feComposite in2="hardAlpha" operator="arithmetic" k2="-1" k3="1"/>
<feColorMatrix type="matrix" values="0 0 0 0 0 0 0 0 0 0.0705882 0 0 0 0 0.14902 0 0 0 0.32 0"/>
<feBlend mode="normal" in2="effect2_innerShadow_3099_397" result="effect3_innerShadow_3099_397"/>
</filter>
<filter id="filter4_bd_3099_397" x="15.6715" y="77.6085" width="61.4051" height="62.4092" filterUnits="userSpaceOnUse" color-interpolation-filters="sRGB">
<feFlood flood-opacity="0" result="BackgroundImageFix"/>
<feGaussianBlur in="BackgroundImageFix" stdDeviation="9.91304"/>
<feComposite in2="SourceAlpha" operator="in" result="effect1_backgroundBlur_3099_397"/>
<feColorMatrix in="SourceAlpha" type="matrix" values="0 0 0 0 0 0 0 0 0 0 0 0 0 0 0 0 0 0 127 0" result="hardAlpha"/>
<feOffset dx="6" dy="4"/>
<feGaussianBlur stdDeviation="13.55"/>
<feColorMatrix type="matrix" values="0 0 0 0 0.41688 0 0 0 0 0.710716 0 0 0 0 0.873958 0 0 0 0.28 0"/>
<feBlend mode="normal" in2="effect1_backgroundBlur_3099_397" result="effect2_dropShadow_3099_397"/>
<feBlend mode="normal" in="SourceGraphic" in2="effect2_dropShadow_3099_397" result="shape"/>
</filter>
<filter id="filter5_bd_3099_397" x="18.6148" y="88.6244" width="61.2957" height="62.3799" filterUnits="userSpaceOnUse" color-interpolation-filters="sRGB">
<feFlood flood-opacity="0" result="BackgroundImageFix"/>
<feGaussianBlur in="BackgroundImageFix" stdDeviation="9.91304"/>
<feComposite in2="SourceAlpha" operator="in" result="effect1_backgroundBlur_3099_397"/>
<feColorMatrix in="SourceAlpha" type="matrix" values="0 0 0 0 0 0 0 0 0 0 0 0 0 0 0 0 0 0 127 0" result="hardAlpha"/>
<feOffset dx="6" dy="4"/>
<feGaussianBlur stdDeviation="13.55"/>
<feColorMatrix type="matrix" values="0 0 0 0 0.41688 0 0 0 0 0.710716 0 0 0 0 0.873958 0 0 0 0.28 0"/>
<feBlend mode="normal" in2="effect1_backgroundBlur_3099_397" result="effect2_dropShadow_3099_397"/>
<feBlend mode="normal" in="SourceGraphic" in2="effect2_dropShadow_3099_397" result="shape"/>
</filter>
<filter id="filter6_bd_3099_397" x="21.3316" y="98.777" width="61.2566" height="62.3692" filterUnits="userSpaceOnUse" color-interpolation-filters="sRGB">
<feFlood flood-opacity="0" result="BackgroundImageFix"/>
<feGaussianBlur in="BackgroundImageFix" stdDeviation="9.91304"/>
<feComposite in2="SourceAlpha" operator="in" result="effect1_backgroundBlur_3099_397"/>
<feColorMatrix in="SourceAlpha" type="matrix" values="0 0 0 0 0 0 0 0 0 0 0 0 0 0 0 0 0 0 127 0" result="hardAlpha"/>
<feOffset dx="6" dy="4"/>
<feGaussianBlur stdDeviation="13.55"/>
<feColorMatrix type="matrix" values="0 0 0 0 0.41688 0 0 0 0 0.710716 0 0 0 0 0.873958 0 0 0 0.28 0"/>
<feBlend mode="normal" in2="effect1_backgroundBlur_3099_397" result="effect2_dropShadow_3099_397"/>
<feBlend mode="normal" in="SourceGraphic" in2="effect2_dropShadow_3099_397" result="shape"/>
</filter>
<filter id="filter7_bd_3099_397" x="34.9937" y="84.4701" width="60.4207" height="62.1453" filterUnits="userSpaceOnUse" color-interpolation-filters="sRGB">
<feFlood flood-opacity="0" result="BackgroundImageFix"/>
<feGaussianBlur in="BackgroundImageFix" stdDeviation="9.91304"/>
<feComposite in2="SourceAlpha" operator="in" result="effect1_backgroundBlur_3099_397"/>
<feColorMatrix in="SourceAlpha" type="matrix" values="0 0 0 0 0 0 0 0 0 0 0 0 0 0 0 0 0 0 127 0" result="hardAlpha"/>
<feOffset dx="6" dy="4"/>
<feGaussianBlur stdDeviation="13.55"/>
<feColorMatrix type="matrix" values="0 0 0 0 0.41688 0 0 0 0 0.710716 0 0 0 0 0.873958 0 0 0 0.28 0"/>
<feBlend mode="normal" in2="effect1_backgroundBlur_3099_397" result="effect2_dropShadow_3099_397"/>
<feBlend mode="normal" in="SourceGraphic" in2="effect2_dropShadow_3099_397" result="shape"/>
</filter>
<filter id="filter8_bd_3099_397" x="42.2906" y="81.8912" width="61.0887" height="61.0884" filterUnits="userSpaceOnUse" color-interpolation-filters="sRGB">
<feFlood flood-opacity="0" result="BackgroundImageFix"/>
<feGaussianBlur in="BackgroundImageFix" stdDeviation="9.91304"/>
<feComposite in2="SourceAlpha" operator="in" result="effect1_backgroundBlur_3099_397"/>
<feColorMatrix in="SourceAlpha" type="matrix" values="0 0 0 0 0 0 0 0 0 0 0 0 0 0 0 0 0 0 127 0" result="hardAlpha"/>
<feOffset dx="6" dy="4"/>
<feGaussianBlur stdDeviation="13.55"/>
<feColorMatrix type="matrix" values="0 0 0 0 0.41688 0 0 0 0 0.710716 0 0 0 0 0.873958 0 0 0 0.28 0"/>
<feBlend mode="normal" in2="effect1_backgroundBlur_3099_397" result="effect2_dropShadow_3099_397"/>
<feBlend mode="normal" in="SourceGraphic" in2="effect2_dropShadow_3099_397" result="shape"/>
</filter>
<linearGradient id="paint0_linear_3099_397" x1="5.57812" y1="86.4265" x2="30.9115" y2="164.185" gradientUnits="userSpaceOnUse">
<stop stop-color="#383838"/>
<stop offset="1"/>
</linearGradient>
<linearGradient id="paint1_linear_3099_397" x1="10.2275" y1="86.167" x2="35.1386" y2="163.483" gradientUnits="userSpaceOnUse">
<stop stop-color="#44CEFD"/>
<stop offset="1" stop-color="#80D2ED" stop-opacity="0.46"/>
</linearGradient>
<linearGradient id="paint2_linear_3099_397" x1="174.27" y1="52.8232" x2="196.53" y2="55.3206" gradientUnits="userSpaceOnUse">
<stop stop-color="#898989"/>
<stop offset="1" stop-color="#DCDCDC"/>
</linearGradient>
<linearGradient id="paint3_linear_3099_397" x1="174.529" y1="53.4425" x2="197.402" y2="56.3113" gradientUnits="userSpaceOnUse">
<stop stop-color="#44CEFD" stop-opacity="0.42"/>
<stop offset="1" stop-color="#44CEFD" stop-opacity="0.58"/>
</linearGradient>
<linearGradient id="paint4_linear_3099_397" x1="23.3906" y1="99.1338" x2="27.7332" y2="145.793" gradientUnits="userSpaceOnUse">
<stop stop-color="#383838"/>
<stop offset="1"/>
</linearGradient>
<linearGradient id="paint5_linear_3099_397" x1="25.7238" y1="99.6035" x2="29.8677" y2="145.967" gradientUnits="userSpaceOnUse">
<stop stop-color="#6FA6B9"/>
<stop offset="1" stop-color="white" stop-opacity="0.21"/>
</linearGradient>
<linearGradient id="paint6_linear_3099_397" x1="106.489" y1="63.708" x2="106.489" y2="132.674" gradientUnits="userSpaceOnUse">
<stop stop-color="#656A73"/>
<stop offset="1" stop-color="#384358"/>
</linearGradient>
<linearGradient id="paint7_linear_3099_397" x1="101.481" y1="64.894" x2="101.481" y2="133.86" gradientUnits="userSpaceOnUse">
<stop stop-color="#656A73"/>
<stop offset="1" stop-color="#2C2E32"/>
</linearGradient>
<linearGradient id="paint8_linear_3099_397" x1="34.9751" y1="99.4246" x2="43.9702" y2="112.064" gradientUnits="userSpaceOnUse">
<stop stop-color="#B1B1B1"/>
<stop offset="1" stop-color="#E4E4E4"/>
</linearGradient>
<linearGradient id="paint9_linear_3099_397" x1="37.9184" y1="110.411" x2="46.9136" y2="123.051" gradientUnits="userSpaceOnUse">
<stop stop-color="#B1B1B1"/>
<stop offset="1" stop-color="#E4E4E4"/>
</linearGradient>
<linearGradient id="paint10_linear_3099_397" x1="40.6352" y1="120.553" x2="50.0273" y2="132.545" gradientUnits="userSpaceOnUse">
<stop stop-color="#B1B1B1"/>
<stop offset="1" stop-color="#E4E4E4"/>
</linearGradient>
<linearGradient id="paint11_linear_3099_397" x1="54.2973" y1="106.022" x2="64.1065" y2="117.14" gradientUnits="userSpaceOnUse">
<stop stop-color="#B1B1B1"/>
<stop offset="1" stop-color="#E4E4E4"/>
</linearGradient>
<linearGradient id="paint12_linear_3099_397" x1="64.3981" y1="114.027" x2="72.954" y2="109.809" gradientUnits="userSpaceOnUse">
<stop stop-color="#B1B1B1"/>
<stop offset="1" stop-color="#E4E4E4"/>
</linearGradient>
<clipPath id="clip0_3099_397">
<rect width="200" height="200" fill="white"/>
</clipPath>
</defs>
</svg>
