<svg width="200" height="200" viewBox="0 0 200 200" fill="none" xmlns="http://www.w3.org/2000/svg">
<g clip-path="url(#clip0_3099_459)">
<g filter="url(#filter0_bd_3099_459)">
<mask id="path-1-outside-1_3099_459" maskUnits="userSpaceOnUse" x="79" y="19" width="75" height="132" fill="black">
<rect fill="white" x="79" y="19" width="75" height="132"/>
<path fill-rule="evenodd" clip-rule="evenodd" d="M128.252 20.9916C125.251 23.491 121.253 33.1918 121.253 35.9918V40.9001C121.253 42.5002 120.388 43.982 118.933 44.6467C117.079 45.4936 114.602 46.4698 112.253 46.9918C107.753 47.9918 101.253 54.4918 100.253 58.9918C99.2527 63.4918 95.2527 67.4918 94.2527 68.4918C93.2602 69.4843 66.6571 103.475 88.7426 126.471C89.0706 126.813 89.4575 127.094 89.8812 127.306C103.868 134.286 129.766 146.797 137.627 149.138C137.714 149.164 137.782 149.077 137.753 148.991C131.753 130.991 144.253 96.4912 150.253 81.4912C155.486 68.4087 151.211 60.651 148.042 54.9008C147.577 54.0579 147.137 53.2582 146.753 52.4912C143.753 46.4912 146.253 30.4911 148.253 25.4911C148.733 24.2923 149.374 23.7222 150.077 23.5656C150.327 23.5099 150.491 23.0838 150.252 22.9918C143.752 20.4918 130.829 18.8455 128.252 20.9916Z"/>
</mask>
<path fill-rule="evenodd" clip-rule="evenodd" d="M128.252 20.9916C125.251 23.491 121.253 33.1918 121.253 35.9918V40.9001C121.253 42.5002 120.388 43.982 118.933 44.6467C117.079 45.4936 114.602 46.4698 112.253 46.9918C107.753 47.9918 101.253 54.4918 100.253 58.9918C99.2527 63.4918 95.2527 67.4918 94.2527 68.4918C93.2602 69.4843 66.6571 103.475 88.7426 126.471C89.0706 126.813 89.4575 127.094 89.8812 127.306C103.868 134.286 129.766 146.797 137.627 149.138C137.714 149.164 137.782 149.077 137.753 148.991C131.753 130.991 144.253 96.4912 150.253 81.4912C155.486 68.4087 151.211 60.651 148.042 54.9008C147.577 54.0579 147.137 53.2582 146.753 52.4912C143.753 46.4912 146.253 30.4911 148.253 25.4911C148.733 24.2923 149.374 23.7222 150.077 23.5656C150.327 23.5099 150.491 23.0838 150.252 22.9918C143.752 20.4918 130.829 18.8455 128.252 20.9916Z" fill="url(#paint0_linear_3099_459)" fill-opacity="0.5"/>
<path d="M128.252 20.9916L127.612 20.2233V20.2233L128.252 20.9916ZM118.933 44.6467L119.348 45.5564H119.348L118.933 44.6467ZM112.253 46.9918L112.036 46.0156L112.253 46.9918ZM88.7426 126.471L88.0214 127.164L88.0214 127.164L88.7426 126.471ZM89.8812 127.306L89.4347 128.201L89.8812 127.306ZM150.253 81.4912L149.324 81.1198L150.253 81.4912ZM148.042 54.9008L147.166 55.3834V55.3834L148.042 54.9008ZM146.753 52.4912L147.648 52.0439L146.753 52.4912ZM148.253 25.4911L149.182 25.8625V25.8625L148.253 25.4911ZM150.077 23.5656L149.86 22.5895L150.077 23.5656ZM137.627 149.138L137.341 150.097L137.627 149.138ZM122.253 35.9918C122.253 35.4575 122.459 34.4532 122.878 33.118C123.287 31.8174 123.866 30.3001 124.541 28.7857C125.215 27.2708 125.977 25.7765 126.746 24.5173C127.527 23.2378 128.271 22.2772 128.892 21.76L127.612 20.2233C126.733 20.9558 125.851 22.1451 125.039 23.4749C124.214 24.8251 123.414 26.3996 122.714 27.9723C122.013 29.5455 121.405 31.1346 120.97 32.5185C120.546 33.8679 120.253 35.1262 120.253 35.9918H122.253ZM122.253 40.9001V35.9918H120.253V40.9001H122.253ZM119.348 45.5564C121.194 44.7134 122.253 42.8526 122.253 40.9001H120.253C120.253 42.1477 119.583 43.2507 118.518 43.7371L119.348 45.5564ZM112.47 47.968C114.915 47.4245 117.464 46.4172 119.348 45.5564L118.518 43.7371C116.694 44.5701 114.288 45.5151 112.036 46.0156L112.47 47.968ZM101.229 59.2088C101.668 57.2338 103.385 54.6486 105.647 52.3864C107.909 50.1243 110.495 48.4069 112.47 47.968L112.036 46.0156C109.511 46.5768 106.596 48.6094 104.233 50.9722C101.87 53.3351 99.8376 56.2499 99.2765 58.7749L101.229 59.2088ZM94.9598 69.1989C95.467 68.6917 96.7604 67.399 98.0563 65.6495C99.3437 63.9116 100.685 61.6549 101.229 59.2088L99.2765 58.7749C98.8201 60.8287 97.6617 62.8221 96.4491 64.4591C95.245 66.0846 94.0384 67.2919 93.5456 67.7847L94.9598 69.1989ZM89.4638 125.779C78.8009 114.676 79.8283 100.899 83.7875 89.5599C85.7635 83.9006 88.4542 78.9074 90.7168 75.2635C91.8471 73.4432 92.8675 71.9647 93.6333 70.9138C94.0163 70.3883 94.3344 69.9714 94.5696 69.6734C94.6873 69.5243 94.7826 69.407 94.8538 69.322C94.9328 69.2276 94.9635 69.1952 94.9598 69.1989L93.5456 67.7847C93.357 67.9733 92.788 68.6779 92.017 69.7359C91.2242 70.8237 90.176 72.3432 89.0177 74.2085C86.7033 77.9357 83.9374 83.0635 81.8993 88.9005C77.8301 100.554 76.5987 115.27 88.0214 127.164L89.4638 125.779ZM90.3278 126.411C90.0032 126.249 89.71 126.035 89.4638 125.779L88.0214 127.164C88.4312 127.591 88.9118 127.94 89.4347 128.201L90.3278 126.411ZM137.912 148.18C134.068 147.035 125.702 143.359 116.474 139.055C107.279 134.767 97.3157 129.899 90.3278 126.411L89.4347 128.201C96.4334 131.694 106.413 136.57 115.629 140.868C124.812 145.15 133.325 148.9 137.341 150.097L137.912 148.18ZM138.702 148.675C137.26 144.35 136.911 138.966 137.329 133.03C137.745 127.105 138.92 120.696 140.474 114.354C143.583 101.671 148.188 89.3456 151.181 81.8625L149.324 81.1198C146.318 88.6367 141.673 101.062 138.532 113.878C136.961 120.287 135.761 126.815 135.333 132.89C134.907 138.954 135.246 144.633 136.804 149.307L138.702 148.675ZM151.181 81.8625C153.863 75.1579 154.129 69.755 153.281 65.2608C152.437 60.7916 150.499 57.2871 148.918 54.4181L147.166 55.3834C148.754 58.2646 150.538 61.5141 151.315 65.6319C152.088 69.7248 151.876 74.742 149.324 81.1198L151.181 81.8625ZM148.918 54.4181C148.451 53.5713 148.02 52.7897 147.648 52.0439L145.859 52.9384C146.253 53.7266 146.704 54.5445 147.166 55.3834L148.918 54.4181ZM147.648 52.0439C146.987 50.7227 146.592 48.7563 146.439 46.3799C146.287 44.0257 146.377 41.362 146.624 38.7088C147.12 33.3763 148.233 28.2345 149.182 25.8625L147.325 25.1197C146.273 27.7477 145.136 33.106 144.632 38.5235C144.379 41.2453 144.282 44.0191 144.443 46.5087C144.602 48.976 145.019 51.2596 145.859 52.9384L147.648 52.0439ZM149.182 25.8625C149.591 24.839 150.031 24.6005 150.295 24.5417L149.86 22.5895C148.717 22.844 147.874 23.7456 147.325 25.1197L149.182 25.8625ZM128.892 21.76C129.049 21.6295 129.367 21.4676 129.916 21.3282C130.45 21.1927 131.126 21.0969 131.927 21.0451C133.527 20.9416 135.527 21.0195 137.677 21.244C141.985 21.6939 146.749 22.716 149.893 23.9252L150.611 22.0585C147.255 20.7677 142.307 19.7166 137.885 19.2548C135.669 19.0235 133.549 18.936 131.798 19.0493C130.923 19.1059 130.116 19.2141 129.424 19.3896C128.749 19.5611 128.099 19.8173 127.612 20.2233L128.892 21.76ZM150.295 24.5417C150.87 24.4135 151.182 23.9466 151.295 23.6131C151.359 23.425 151.406 23.1529 151.327 22.8545C151.236 22.5143 150.991 22.2047 150.611 22.0585L149.893 23.9252C149.632 23.825 149.457 23.6031 149.395 23.3704C149.344 23.1794 149.379 23.0346 149.401 22.9715C149.425 22.8996 149.463 22.8346 149.519 22.7764C149.572 22.72 149.682 22.629 149.86 22.5895L150.295 24.5417ZM137.341 150.097C137.797 150.233 138.243 150.06 138.504 149.744C138.749 149.448 138.825 149.044 138.702 148.675L136.804 149.307C136.71 149.024 136.766 148.707 136.963 148.469C137.175 148.213 137.543 148.07 137.912 148.18L137.341 150.097Z" fill="url(#paint1_linear_3099_459)" mask="url(#path-1-outside-1_3099_459)"/>
</g>
<g filter="url(#filter1_bd_3099_459)">
<path fill-rule="evenodd" clip-rule="evenodd" d="M145.368 44.4958C131.451 44.8634 123.66 40.3182 121.5 37.9922L121.253 38.6846V41.7266C121.253 42.8161 120.664 43.8242 119.682 44.2959C119.516 44.3759 119.341 44.4581 119.161 44.5419L119 44.9922C122.6 50.5922 139.167 52.6589 147 52.9922C146.973 52.9389 146.947 52.8822 146.921 52.8222C146.864 52.7111 146.808 52.6008 146.753 52.4912C145.808 50.6002 145.408 47.7159 145.368 44.4958Z" fill="url(#paint2_linear_3099_459)" fill-opacity="0.5"/>
</g>
<g filter="url(#filter2_bd_3099_459)">
<mask id="path-4-inside-2_3099_459" fill="white">
<path fill-rule="evenodd" clip-rule="evenodd" d="M150.81 23.0485C151.223 23.1315 151.59 23.3634 151.882 23.6675C155.15 27.0777 154.246 35.3454 153.526 41.9401C153.346 43.5896 153.177 45.1344 153.088 46.4723C152.831 50.3227 154.947 53.9095 157.066 57.5034C159.075 60.9099 161.088 64.3227 161.088 67.9723C161.088 74.0476 152.558 108.666 148.52 125.054C147.573 128.897 146.873 131.738 146.588 132.972C145.088 139.472 143.088 147.972 139.588 148.972C139.302 149.054 138.713 148.966 137.868 148.735C137.737 148.699 137.632 148.601 137.589 148.472C131.589 130.472 144.089 95.9717 150.089 80.9717C155.322 67.8893 151.047 60.1315 147.878 54.3813C147.413 53.5384 146.973 52.7387 146.589 51.9717C143.589 45.9717 146.089 29.9717 148.089 24.9716C148.767 23.2773 149.767 22.839 150.81 23.0485Z"/>
</mask>
<path fill-rule="evenodd" clip-rule="evenodd" d="M150.81 23.0485C151.223 23.1315 151.59 23.3634 151.882 23.6675C155.15 27.0777 154.246 35.3454 153.526 41.9401C153.346 43.5896 153.177 45.1344 153.088 46.4723C152.831 50.3227 154.947 53.9095 157.066 57.5034C159.075 60.9099 161.088 64.3227 161.088 67.9723C161.088 74.0476 152.558 108.666 148.52 125.054C147.573 128.897 146.873 131.738 146.588 132.972C145.088 139.472 143.088 147.972 139.588 148.972C139.302 149.054 138.713 148.966 137.868 148.735C137.737 148.699 137.632 148.601 137.589 148.472C131.589 130.472 144.089 95.9717 150.089 80.9717C155.322 67.8893 151.047 60.1315 147.878 54.3813C147.413 53.5384 146.973 52.7387 146.589 51.9717C143.589 45.9717 146.089 29.9717 148.089 24.9716C148.767 23.2773 149.767 22.839 150.81 23.0485Z" fill="url(#paint3_linear_3099_459)" fill-opacity="0.5"/>
<path d="M153.526 41.9401L154.52 42.0487V42.0487L153.526 41.9401ZM153.088 46.4723L152.09 46.4058L153.088 46.4723ZM157.066 57.5034L156.205 58.0114L157.066 57.5034ZM148.52 125.054L147.549 124.815L148.52 125.054ZM146.588 132.972L145.613 132.747L146.588 132.972ZM139.588 148.972L139.313 148.011H139.313L139.588 148.972ZM150.089 80.9717L149.16 80.6003L150.089 80.9717ZM147.878 54.3813L147.002 54.8639V54.8639L147.878 54.3813ZM148.089 24.9716L147.161 24.6003V24.6003L148.089 24.9716ZM137.868 148.735L138.132 147.771L137.868 148.735ZM151.882 23.6675L151.16 24.3594L151.882 23.6675ZM150.81 23.0485L150.613 24.0289L150.81 23.0485ZM151.16 24.3594C152.513 25.7712 153.108 28.3434 153.2 31.6375C153.29 34.8739 152.894 38.5186 152.532 41.8315L154.52 42.0487C154.879 38.7669 155.294 34.9804 155.199 31.5817C155.106 28.2407 154.519 24.974 152.604 22.9756L151.16 24.3594ZM152.532 41.8315C152.352 43.4749 152.181 45.0425 152.09 46.4058L154.086 46.5389C154.173 45.2263 154.339 43.7043 154.52 42.0487L152.532 41.8315ZM152.09 46.4058C151.809 50.6225 154.127 54.4886 156.205 58.0114L157.927 56.9954C155.766 53.3305 153.853 50.0229 154.086 46.5389L152.09 46.4058ZM156.205 58.0114C158.25 61.4793 160.088 64.6471 160.088 67.9723H162.088C162.088 63.9984 159.9 60.3405 157.927 56.9954L156.205 58.0114ZM160.088 67.9723C160.088 69.3726 159.58 72.5699 158.711 76.9555C157.851 81.2967 156.661 86.6942 155.344 92.4218C152.708 103.876 149.568 116.62 147.549 124.815L149.491 125.293C151.509 117.101 154.653 104.341 157.293 92.8702C158.612 87.1352 159.807 81.7148 160.673 77.3441C161.53 73.018 162.088 69.6097 162.088 67.9723H160.088ZM147.549 124.815C146.603 128.652 145.901 131.503 145.613 132.747L147.562 133.197C147.845 131.972 148.542 129.142 149.491 125.293L147.549 124.815ZM145.613 132.747C144.86 136.011 143.999 139.697 142.899 142.69C142.349 144.187 141.757 145.461 141.119 146.404C140.469 147.364 139.857 147.855 139.313 148.011L139.863 149.934C141.069 149.589 142.019 148.643 142.775 147.525C143.544 146.39 144.201 144.945 144.777 143.38C145.927 140.248 146.815 136.434 147.562 133.197L145.613 132.747ZM139.313 148.011C139.365 147.996 139.377 148.002 139.321 148.002C139.271 148.002 139.191 147.997 139.077 147.981C138.847 147.948 138.534 147.881 138.132 147.771L137.604 149.7C138.047 149.821 138.451 149.912 138.799 149.961C139.111 150.005 139.507 150.036 139.863 149.934L139.313 148.011ZM138.537 148.155C137.096 143.83 136.747 138.446 137.164 132.511C137.581 126.586 138.756 120.176 140.31 113.835C143.419 101.151 148.024 88.8261 151.017 81.3431L149.16 80.6003C146.154 88.1172 141.509 100.542 138.368 113.359C136.797 119.767 135.597 126.295 135.169 132.37C134.743 138.435 135.082 144.113 136.64 148.788L138.537 148.155ZM151.017 81.3431C153.699 74.6385 153.965 69.2355 153.117 64.7413C152.273 60.2722 150.335 56.7677 148.754 53.8986L147.002 54.8639C148.59 57.7451 150.374 60.9946 151.151 65.1125C151.924 69.2054 151.711 74.2225 149.16 80.6003L151.017 81.3431ZM148.754 53.8986C148.287 53.0518 147.856 52.2703 147.483 51.5245L145.695 52.4189C146.089 53.2072 146.54 54.0251 147.002 54.8639L148.754 53.8986ZM147.483 51.5245C146.823 50.2032 146.428 48.2368 146.274 45.8604C146.123 43.5062 146.213 40.8426 146.46 38.1893C146.956 32.8568 148.069 27.715 149.018 25.343L147.161 24.6003C146.109 27.2283 144.972 32.5865 144.468 38.004C144.215 40.7258 144.118 43.4996 144.279 45.9892C144.438 48.4565 144.855 50.7402 145.695 52.4189L147.483 51.5245ZM149.018 25.343C149.308 24.6159 149.618 24.2865 149.848 24.1405C150.058 24.0077 150.296 23.9652 150.613 24.0289L151.007 22.0681C150.281 21.9222 149.498 21.9942 148.777 22.4518C148.077 22.8962 147.547 23.6331 147.161 24.6003L149.018 25.343ZM138.132 147.771C138.319 147.822 138.473 147.963 138.537 148.155L136.64 148.788C136.79 149.238 137.155 149.577 137.604 149.7L138.132 147.771ZM152.604 22.9756C152.203 22.5571 151.661 22.1996 151.007 22.0681L150.613 24.0289C150.785 24.0635 150.978 24.1697 151.16 24.3594L152.604 22.9756Z" fill="url(#paint4_linear_3099_459)" mask="url(#path-4-inside-2_3099_459)"/>
</g>
<g opacity="0.6" filter="url(#filter3_bd_3099_459)">
<path d="M99.4999 132C105.1 98.4 98.1666 75.6667 93.9999 68.5C90.3332 72.8333 82.3999 85 79.9999 99C77.5999 113 84.9999 123.833 88.9999 127.5L99.4999 132Z" fill="url(#paint5_linear_3099_459)" fill-opacity="0.5"/>
</g>
<g opacity="0.6" filter="url(#filter4_bd_3099_459)">
<path d="M120.499 103C113.299 113.8 113.499 131.833 114.499 139.5L138.5 150C136.5 145 135.5 141 136.5 127.5C137.3 116.7 145.5 92.6667 149.5 82.5C142.5 85 127.699 92.2 120.499 103Z" fill="url(#paint6_linear_3099_459)" fill-opacity="0.5"/>
</g>
<g filter="url(#filter5_bd_3099_459)">
<path d="M50 129.5C56.2169 128.334 77.4057 128.018 88.0846 128.001C88.6901 128 89.2865 128.125 89.8416 128.367L137.511 149.134C138.765 149.68 139.722 150.784 139.728 152.151C139.745 156.607 137.693 163.383 136 165.5C134 168 112 179.5 94 179.5C80.2126 179.5 53.7131 161.471 40.6581 151.306C39.6001 150.482 39 149.22 39 147.879V139.5C39 135 42 131 50 129.5Z" fill="url(#paint7_linear_3099_459)" fill-opacity="0.5"/>
<path d="M88.0838 127.501C82.741 127.509 74.7691 127.593 67.3538 127.82C59.9566 128.047 53.0624 128.417 49.9079 129.009C45.8449 129.77 42.9898 131.178 41.1464 133.021C39.294 134.874 38.5 137.13 38.5 139.5V147.879C38.5 149.37 39.1679 150.779 40.351 151.701C46.8912 156.793 56.7989 163.855 66.8039 169.648C71.8062 172.544 76.8419 175.127 81.4991 176.988C86.1474 178.846 90.4587 180 94 180C103.092 180 113.16 177.1 121.185 173.902C125.202 172.301 128.721 170.621 131.364 169.181C132.686 168.462 133.793 167.799 134.637 167.235C135.464 166.682 136.087 166.192 136.39 165.812C137.303 164.671 138.261 162.365 138.986 159.841C139.716 157.3 140.237 154.442 140.228 152.149C140.221 150.528 139.09 149.276 137.711 148.675L90.0413 127.908C89.4236 127.639 88.759 127.5 88.0838 127.501Z" stroke="url(#paint8_linear_3099_459)"/>
</g>
<g opacity="0.6" filter="url(#filter6_bd_3099_459)">
<path fill-rule="evenodd" clip-rule="evenodd" d="M139.244 150.556C139.547 151.023 139.725 151.563 139.728 152.151C139.745 156.607 137.693 163.383 136 165.5C134 168 112 179.5 94 179.5C80.2126 179.5 53.7131 161.471 40.6581 151.306C39.6001 150.482 39 149.22 39 147.879V139.5C39 137.512 39.5858 135.621 40.9299 134H41C41.1667 135.333 42.3 138.6 45.5 141C49.5 144 79 162 96 160.5C108.808 159.37 129.126 153.716 139.244 150.556Z" fill="url(#paint9_linear_3099_459)" fill-opacity="0.5"/>
</g>
</g>
<defs>
<filter id="filter0_bd_3099_459" x="57.9" y="-4.1" width="128.911" height="185.344" filterUnits="userSpaceOnUse" color-interpolation-filters="sRGB">
<feFlood flood-opacity="0" result="BackgroundImageFix"/>
<feGaussianBlur in="BackgroundImageFix" stdDeviation="9.91304"/>
<feComposite in2="SourceAlpha" operator="in" result="effect1_backgroundBlur_3099_459"/>
<feColorMatrix in="SourceAlpha" type="matrix" values="0 0 0 0 0 0 0 0 0 0 0 0 0 0 0 0 0 0 127 0" result="hardAlpha"/>
<feOffset dx="6" dy="4"/>
<feGaussianBlur stdDeviation="13.55"/>
<feColorMatrix type="matrix" values="0 0 0 0 0.41688 0 0 0 0 0.710716 0 0 0 0 0.873958 0 0 0 0.28 0"/>
<feBlend mode="normal" in2="effect1_backgroundBlur_3099_459" result="effect2_dropShadow_3099_459"/>
<feBlend mode="normal" in="SourceGraphic" in2="effect2_dropShadow_3099_459" result="shape"/>
</filter>
<filter id="filter1_bd_3099_459" x="97.9" y="14.8922" width="82.2" height="69.2" filterUnits="userSpaceOnUse" color-interpolation-filters="sRGB">
<feFlood flood-opacity="0" result="BackgroundImageFix"/>
<feGaussianBlur in="BackgroundImageFix" stdDeviation="9.91304"/>
<feComposite in2="SourceAlpha" operator="in" result="effect1_backgroundBlur_3099_459"/>
<feColorMatrix in="SourceAlpha" type="matrix" values="0 0 0 0 0 0 0 0 0 0 0 0 0 0 0 0 0 0 127 0" result="hardAlpha"/>
<feOffset dx="6" dy="4"/>
<feGaussianBlur stdDeviation="13.55"/>
<feColorMatrix type="matrix" values="0 0 0 0 0.41688 0 0 0 0 0.710716 0 0 0 0 0.873958 0 0 0 0.28 0"/>
<feBlend mode="normal" in2="effect1_backgroundBlur_3099_459" result="effect2_dropShadow_3099_459"/>
<feBlend mode="normal" in="SourceGraphic" in2="effect2_dropShadow_3099_459" result="shape"/>
</filter>
<filter id="filter2_bd_3099_459" x="114.9" y="-0.1" width="79.2879" height="180.202" filterUnits="userSpaceOnUse" color-interpolation-filters="sRGB">
<feFlood flood-opacity="0" result="BackgroundImageFix"/>
<feGaussianBlur in="BackgroundImageFix" stdDeviation="9.91304"/>
<feComposite in2="SourceAlpha" operator="in" result="effect1_backgroundBlur_3099_459"/>
<feColorMatrix in="SourceAlpha" type="matrix" values="0 0 0 0 0 0 0 0 0 0 0 0 0 0 0 0 0 0 127 0" result="hardAlpha"/>
<feOffset dx="6" dy="4"/>
<feGaussianBlur stdDeviation="13.55"/>
<feColorMatrix type="matrix" values="0 0 0 0 0.41688 0 0 0 0 0.710716 0 0 0 0 0.873958 0 0 0 0.28 0"/>
<feBlend mode="normal" in2="effect1_backgroundBlur_3099_459" result="effect2_dropShadow_3099_459"/>
<feBlend mode="normal" in="SourceGraphic" in2="effect2_dropShadow_3099_459" result="shape"/>
</filter>
<filter id="filter3_bd_3099_459" x="58.4312" y="45.4" width="76.2645" height="117.7" filterUnits="userSpaceOnUse" color-interpolation-filters="sRGB">
<feFlood flood-opacity="0" result="BackgroundImageFix"/>
<feGaussianBlur in="BackgroundImageFix" stdDeviation="9.91304"/>
<feComposite in2="SourceAlpha" operator="in" result="effect1_backgroundBlur_3099_459"/>
<feColorMatrix in="SourceAlpha" type="matrix" values="0 0 0 0 0 0 0 0 0 0 0 0 0 0 0 0 0 0 127 0" result="hardAlpha"/>
<feOffset dx="6" dy="4"/>
<feGaussianBlur stdDeviation="13.55"/>
<feColorMatrix type="matrix" values="0 0 0 0 0.41688 0 0 0 0 0.710716 0 0 0 0 0.873958 0 0 0 0.28 0"/>
<feBlend mode="normal" in2="effect1_backgroundBlur_3099_459" result="effect2_dropShadow_3099_459"/>
<feBlend mode="normal" in="SourceGraphic" in2="effect2_dropShadow_3099_459" result="shape"/>
</filter>
<filter id="filter4_bd_3099_459" x="92.8922" y="59.4" width="89.7078" height="121.7" filterUnits="userSpaceOnUse" color-interpolation-filters="sRGB">
<feFlood flood-opacity="0" result="BackgroundImageFix"/>
<feGaussianBlur in="BackgroundImageFix" stdDeviation="9.91304"/>
<feComposite in2="SourceAlpha" operator="in" result="effect1_backgroundBlur_3099_459"/>
<feColorMatrix in="SourceAlpha" type="matrix" values="0 0 0 0 0 0 0 0 0 0 0 0 0 0 0 0 0 0 127 0" result="hardAlpha"/>
<feOffset dx="6" dy="4"/>
<feGaussianBlur stdDeviation="13.55"/>
<feColorMatrix type="matrix" values="0 0 0 0 0.41688 0 0 0 0 0.710716 0 0 0 0 0.873958 0 0 0 0.28 0"/>
<feBlend mode="normal" in2="effect1_backgroundBlur_3099_459" result="effect2_dropShadow_3099_459"/>
<feBlend mode="normal" in="SourceGraphic" in2="effect2_dropShadow_3099_459" result="shape"/>
</filter>
<filter id="filter5_bd_3099_459" x="16.9" y="103.901" width="156.929" height="107.699" filterUnits="userSpaceOnUse" color-interpolation-filters="sRGB">
<feFlood flood-opacity="0" result="BackgroundImageFix"/>
<feGaussianBlur in="BackgroundImageFix" stdDeviation="9.91304"/>
<feComposite in2="SourceAlpha" operator="in" result="effect1_backgroundBlur_3099_459"/>
<feColorMatrix in="SourceAlpha" type="matrix" values="0 0 0 0 0 0 0 0 0 0 0 0 0 0 0 0 0 0 127 0" result="hardAlpha"/>
<feOffset dx="6" dy="4"/>
<feGaussianBlur stdDeviation="13.55"/>
<feColorMatrix type="matrix" values="0 0 0 0 0.41688 0 0 0 0 0.710716 0 0 0 0 0.873958 0 0 0 0.28 0"/>
<feBlend mode="normal" in2="effect1_backgroundBlur_3099_459" result="effect2_dropShadow_3099_459"/>
<feBlend mode="normal" in="SourceGraphic" in2="effect2_dropShadow_3099_459" result="shape"/>
</filter>
<filter id="filter6_bd_3099_459" x="17.9" y="110.9" width="154.929" height="99.7" filterUnits="userSpaceOnUse" color-interpolation-filters="sRGB">
<feFlood flood-opacity="0" result="BackgroundImageFix"/>
<feGaussianBlur in="BackgroundImageFix" stdDeviation="9.91304"/>
<feComposite in2="SourceAlpha" operator="in" result="effect1_backgroundBlur_3099_459"/>
<feColorMatrix in="SourceAlpha" type="matrix" values="0 0 0 0 0 0 0 0 0 0 0 0 0 0 0 0 0 0 127 0" result="hardAlpha"/>
<feOffset dx="6" dy="4"/>
<feGaussianBlur stdDeviation="13.55"/>
<feColorMatrix type="matrix" values="0 0 0 0 0.41688 0 0 0 0 0.710716 0 0 0 0 0.873958 0 0 0 0.28 0"/>
<feBlend mode="normal" in2="effect1_backgroundBlur_3099_459" result="effect2_dropShadow_3099_459"/>
<feBlend mode="normal" in="SourceGraphic" in2="effect2_dropShadow_3099_459" result="shape"/>
</filter>
<linearGradient id="paint0_linear_3099_459" x1="80" y1="20" x2="128.28" y2="154.007" gradientUnits="userSpaceOnUse">
<stop stop-color="#383838"/>
<stop offset="1"/>
</linearGradient>
<linearGradient id="paint1_linear_3099_459" x1="81.9389" y1="21.5109" x2="128.394" y2="155.778" gradientUnits="userSpaceOnUse">
<stop stop-color="#44CEFD"/>
<stop offset="1" stop-color="#80D2ED" stop-opacity="0.46"/>
</linearGradient>
<linearGradient id="paint2_linear_3099_459" x1="119" y1="37.9922" x2="120.889" y2="55.3722" gradientUnits="userSpaceOnUse">
<stop/>
<stop offset="1" stop-color="#1A1A1A"/>
</linearGradient>
<linearGradient id="paint3_linear_3099_459" x1="136" y1="23" x2="209.847" y2="95.4863" gradientUnits="userSpaceOnUse">
<stop stop-color="#383838"/>
<stop offset="1"/>
</linearGradient>
<linearGradient id="paint4_linear_3099_459" x1="136.669" y1="24.4742" x2="209.994" y2="99.4198" gradientUnits="userSpaceOnUse">
<stop stop-color="#44CEFD"/>
<stop offset="1" stop-color="#80D2ED" stop-opacity="0.46"/>
</linearGradient>
<linearGradient id="paint5_linear_3099_459" x1="79.5313" y1="68.5" x2="111.943" y2="124.024" gradientUnits="userSpaceOnUse">
<stop/>
<stop offset="1" stop-color="#1A1A1A"/>
</linearGradient>
<linearGradient id="paint6_linear_3099_459" x1="113.992" y1="82" x2="140.349" y2="151.762" gradientUnits="userSpaceOnUse">
<stop/>
<stop offset="1" stop-color="#1A1A1A"/>
</linearGradient>
<linearGradient id="paint7_linear_3099_459" x1="39" y1="128" x2="45.1949" y2="187.734" gradientUnits="userSpaceOnUse">
<stop stop-color="#383838"/>
<stop offset="1"/>
</linearGradient>
<linearGradient id="paint8_linear_3099_459" x1="41.6861" y1="128.603" x2="47.5986" y2="187.967" gradientUnits="userSpaceOnUse">
<stop stop-color="#44CEFD"/>
<stop offset="1" stop-color="#80D2ED" stop-opacity="0.46"/>
</linearGradient>
<linearGradient id="paint9_linear_3099_459" x1="39" y1="134" x2="43.8469" y2="186.898" gradientUnits="userSpaceOnUse">
<stop/>
<stop offset="1" stop-color="#1A1A1A"/>
</linearGradient>
<clipPath id="clip0_3099_459">
<rect width="200" height="200" fill="white"/>
</clipPath>
</defs>
</svg>
