<svg width="200" height="162" viewBox="0 0 200 162" fill="none" xmlns="http://www.w3.org/2000/svg">
<g id="Group 627018">
<g id="Vector 29" filter="url(#filter0_bd_3099_166)">
<path d="M187.867 46.5721C185.815 43.4542 179.701 42.7205 177.39 42.4124L164.5 128.5C164.5 128.5 167 130.252 171.074 130.538C171.973 130.601 173.157 130.571 174.274 130.509C176.291 130.398 177.888 128.842 178.164 126.841C181.551 102.255 187.858 58.2945 188.329 55.3539C188.945 51.5022 188.88 48.1128 187.867 46.5721Z" fill="url(#paint0_linear_3099_166)" fill-opacity="0.5"/>
<path d="M165.201 128.343C165.142 128.31 165.089 128.279 165.043 128.252L177.812 42.9728C179.014 43.134 180.813 43.3957 182.584 43.9181C184.639 44.5242 186.527 45.4459 187.449 46.8469C187.879 47.5011 188.145 48.621 188.21 50.118C188.274 51.5962 188.14 53.3713 187.835 55.2749C187.364 58.222 181.055 102.188 177.668 126.772C177.423 128.551 176.01 129.912 174.246 130.01C173.134 130.071 171.976 130.1 171.109 130.039C169.136 129.901 167.546 129.407 166.452 128.95C165.905 128.722 165.483 128.503 165.201 128.343Z" stroke="url(#paint1_linear_3099_166)"/>
</g>
<g id="Vector 28" filter="url(#filter1_bd_3099_166)">
<path d="M11.3842 66.4932L15.3758 26.9632C15.6031 24.7128 17.487 23.0763 19.741 23.2651C31.1306 24.219 63.426 27.5935 90.1897 30.8573C113.769 33.7329 156.447 39.4263 178.654 42.4277C181.096 42.7577 182.783 45.0266 182.408 47.4623L170.462 124.975C170.005 127.942 166.791 129.601 164.107 128.255C147.183 119.761 115.043 104.208 90.1897 94.6405C64.4306 84.7244 31.2406 75.4495 14.6952 71.2263C12.5694 70.6837 11.1638 68.676 11.3842 66.4932Z" fill="url(#paint2_linear_3099_166)" fill-opacity="0.5"/>
<path d="M11.8817 66.5434L15.8733 27.0134C16.0744 25.022 17.7295 23.5983 19.6993 23.7633C31.0803 24.7165 63.3689 28.0902 90.1292 31.3537C113.705 34.2288 156.38 39.9217 178.587 42.9232C180.75 43.2156 182.247 45.2257 181.914 47.3861L169.968 124.899C169.562 127.531 166.712 129.002 164.332 127.808C147.405 119.313 115.247 103.751 90.3693 94.1739C64.5831 84.2473 31.3711 74.9667 14.8188 70.7418C12.9325 70.2603 11.6862 68.4797 11.8817 66.5434Z" stroke="url(#paint3_linear_3099_166)"/>
</g>
<g id="Vector 30" filter="url(#filter2_bdi_3099_166)">
<path d="M87.8409 85.6701C89.2813 77.253 92.9559 53.1424 95.0672 39.1197C95.2765 37.7298 96.4459 36.7477 97.8419 36.9119C109.185 38.2467 150.712 45.9045 170.419 49.5436C171.932 49.823 172.929 51.2529 172.69 52.7728L163.147 113.627C162.833 115.628 160.538 116.785 158.691 115.954C145.953 110.221 108.873 96.2199 89.6509 88.87C88.3577 88.3755 87.6074 87.0348 87.8409 85.6701Z" fill="url(#paint4_linear_3099_166)" fill-opacity="0.5"/>
<path d="M87.9187 85.6834C89.3593 77.2654 93.034 53.1538 95.1452 39.1314C95.3488 37.7795 96.483 36.8315 97.8326 36.9903C109.173 38.3246 150.696 45.9817 170.405 49.6212C171.875 49.8926 172.844 51.2822 172.612 52.7606L163.069 113.615C162.764 115.561 160.526 116.693 158.723 115.882C147.701 110.921 118.461 99.7725 98.3284 92.0969C95.1893 90.9001 92.2717 89.7877 89.679 88.7963C88.4216 88.3155 87.6914 87.0116 87.9187 85.6834Z" stroke="url(#paint5_linear_3099_166)" stroke-width="0.157771"/>
</g>
<g id="Vector 31" filter="url(#filter3_bdi_3099_166)">
<path d="M16.9159 65.3896C17.9156 57.9172 19.538 40.4232 20.6072 29.5582C20.7501 28.1067 21.9609 27.0053 23.418 27.0698C34.8508 27.5756 59.3094 30.9696 72.5777 33.1986C74.0107 33.4394 75.0158 34.7191 74.8898 36.1667C74.0266 46.0805 71.5001 67.7659 69.8451 80.5629C69.6144 82.3473 67.8039 83.4572 66.1004 82.8779C60.6991 81.0412 49.7608 77.4137 41.8136 75.3825C34.5687 73.5307 23.6585 70.1061 18.9028 68.5897C17.5484 68.1578 16.7274 66.7986 16.9159 65.3896Z" fill="url(#paint6_linear_3099_166)" fill-opacity="0.5"/>
<path d="M16.9941 65.4C17.7914 59.4409 18.9845 47.1108 19.9772 36.851C20.2296 34.2426 20.469 31.768 20.6858 29.5659C20.8247 28.154 22.0014 27.0861 23.4145 27.1486C34.8421 27.6542 59.2967 31.0474 72.5646 33.2764C73.9577 33.5105 74.9336 34.7538 74.8112 36.1599C73.9482 46.072 71.4218 67.7561 69.7669 80.5528C69.5426 82.287 67.7828 83.3667 66.1258 82.8032C60.7246 80.9666 49.7836 77.3381 41.8332 75.306C34.5908 73.455 23.6827 70.031 18.9267 68.5145C17.6104 68.0948 16.8105 66.7729 16.9941 65.4Z" stroke="url(#paint7_linear_3099_166)" stroke-width="0.157771"/>
</g>
</g>
<defs>
<filter id="filter0_bd_3099_166" x="143.4" y="19.3124" width="78.4246" height="142.36" filterUnits="userSpaceOnUse" color-interpolation-filters="sRGB">
<feFlood flood-opacity="0" result="BackgroundImageFix"/>
<feGaussianBlur in="BackgroundImageFix" stdDeviation="9.91304"/>
<feComposite in2="SourceAlpha" operator="in" result="effect1_backgroundBlur_3099_166"/>
<feColorMatrix in="SourceAlpha" type="matrix" values="0 0 0 0 0 0 0 0 0 0 0 0 0 0 0 0 0 0 127 0" result="hardAlpha"/>
<feOffset dx="6" dy="4"/>
<feGaussianBlur stdDeviation="13.55"/>
<feColorMatrix type="matrix" values="0 0 0 0 0.41688 0 0 0 0 0.710716 0 0 0 0 0.873958 0 0 0 0.28 0"/>
<feBlend mode="normal" in2="effect1_backgroundBlur_3099_166" result="effect2_dropShadow_3099_166"/>
<feBlend mode="normal" in="SourceGraphic" in2="effect2_dropShadow_3099_166" result="shape"/>
</filter>
<filter id="filter1_bd_3099_166" x="-9.73867" y="0.150244" width="225.3" height="159.678" filterUnits="userSpaceOnUse" color-interpolation-filters="sRGB">
<feFlood flood-opacity="0" result="BackgroundImageFix"/>
<feGaussianBlur in="BackgroundImageFix" stdDeviation="9.91304"/>
<feComposite in2="SourceAlpha" operator="in" result="effect1_backgroundBlur_3099_166"/>
<feColorMatrix in="SourceAlpha" type="matrix" values="0 0 0 0 0 0 0 0 0 0 0 0 0 0 0 0 0 0 127 0" result="hardAlpha"/>
<feOffset dx="6" dy="4"/>
<feGaussianBlur stdDeviation="13.55"/>
<feColorMatrix type="matrix" values="0 0 0 0 0.41688 0 0 0 0 0.710716 0 0 0 0 0.873958 0 0 0 0.28 0"/>
<feBlend mode="normal" in2="effect1_backgroundBlur_3099_166" result="effect2_dropShadow_3099_166"/>
<feBlend mode="normal" in="SourceGraphic" in2="effect2_dropShadow_3099_166" result="shape"/>
</filter>
<filter id="filter2_bdi_3099_166" x="81.5429" y="30.3774" width="111.253" height="102.27" filterUnits="userSpaceOnUse" color-interpolation-filters="sRGB">
<feFlood flood-opacity="0" result="BackgroundImageFix"/>
<feGaussianBlur in="BackgroundImageFix" stdDeviation="3.12798"/>
<feComposite in2="SourceAlpha" operator="in" result="effect1_backgroundBlur_3099_166"/>
<feColorMatrix in="SourceAlpha" type="matrix" values="0 0 0 0 0 0 0 0 0 0 0 0 0 0 0 0 0 0 127 0" result="hardAlpha"/>
<feOffset dx="8.60195" dy="4.95264"/>
<feGaussianBlur stdDeviation="5.73463"/>
<feColorMatrix type="matrix" values="0 0 0 0 0.0766667 0 0 0 0 0.180933 0 0 0 0 0.383333 0 0 0 0.15 0"/>
<feBlend mode="normal" in2="effect1_backgroundBlur_3099_166" result="effect2_dropShadow_3099_166"/>
<feBlend mode="normal" in="SourceGraphic" in2="effect2_dropShadow_3099_166" result="shape"/>
<feColorMatrix in="SourceAlpha" type="matrix" values="0 0 0 0 0 0 0 0 0 0 0 0 0 0 0 0 0 0 127 0" result="hardAlpha"/>
<feOffset dx="1.04266" dy="1.39021"/>
<feGaussianBlur stdDeviation="0.695107"/>
<feComposite in2="hardAlpha" operator="arithmetic" k2="-1" k3="1"/>
<feColorMatrix type="matrix" values="0 0 0 0 0 0 0 0 0 0 0 0 0 0 0 0 0 0 0.25 0"/>
<feBlend mode="normal" in2="shape" result="effect3_innerShadow_3099_166"/>
</filter>
<filter id="filter3_bdi_3099_166" x="10.6327" y="20.5505" width="84.3389" height="78.9039" filterUnits="userSpaceOnUse" color-interpolation-filters="sRGB">
<feFlood flood-opacity="0" result="BackgroundImageFix"/>
<feGaussianBlur in="BackgroundImageFix" stdDeviation="3.12798"/>
<feComposite in2="SourceAlpha" operator="in" result="effect1_backgroundBlur_3099_166"/>
<feColorMatrix in="SourceAlpha" type="matrix" values="0 0 0 0 0 0 0 0 0 0 0 0 0 0 0 0 0 0 127 0" result="hardAlpha"/>
<feOffset dx="8.60195" dy="4.95264"/>
<feGaussianBlur stdDeviation="5.73463"/>
<feColorMatrix type="matrix" values="0 0 0 0 0.0766667 0 0 0 0 0.180933 0 0 0 0 0.383333 0 0 0 0.15 0"/>
<feBlend mode="normal" in2="effect1_backgroundBlur_3099_166" result="effect2_dropShadow_3099_166"/>
<feBlend mode="normal" in="SourceGraphic" in2="effect2_dropShadow_3099_166" result="shape"/>
<feColorMatrix in="SourceAlpha" type="matrix" values="0 0 0 0 0 0 0 0 0 0 0 0 0 0 0 0 0 0 127 0" result="hardAlpha"/>
<feOffset dx="1.04266" dy="1.39021"/>
<feGaussianBlur stdDeviation="0.695107"/>
<feComposite in2="hardAlpha" operator="arithmetic" k2="-1" k3="1"/>
<feColorMatrix type="matrix" values="0 0 0 0 0 0 0 0 0 0 0 0 0 0 0 0 0 0 0.25 0"/>
<feBlend mode="normal" in2="shape" result="effect3_innerShadow_3099_166"/>
</filter>
<linearGradient id="paint0_linear_3099_166" x1="166.76" y1="42.4124" x2="217.363" y2="104.569" gradientUnits="userSpaceOnUse">
<stop stop-color="#383838"/>
<stop offset="1"/>
</linearGradient>
<linearGradient id="paint1_linear_3099_166" x1="167.346" y1="43.4438" x2="217.145" y2="107.139" gradientUnits="userSpaceOnUse">
<stop stop-color="#44CEFD"/>
<stop offset="1" stop-color="#80D2ED" stop-opacity="0.46"/>
</linearGradient>
<linearGradient id="paint2_linear_3099_166" x1="11" y1="23" x2="26.8608" y2="147.595" gradientUnits="userSpaceOnUse">
<stop stop-color="#383838"/>
<stop offset="1"/>
</linearGradient>
<linearGradient id="paint3_linear_3099_166" x1="15.5891" y1="24.2635" x2="30.7331" y2="148.139" gradientUnits="userSpaceOnUse">
<stop stop-color="#44CEFD"/>
<stop offset="1" stop-color="#80D2ED" stop-opacity="0.46"/>
</linearGradient>
<linearGradient id="paint4_linear_3099_166" x1="92.234" y1="38.0106" x2="110.068" y2="128.056" gradientUnits="userSpaceOnUse">
<stop stop-color="#383838"/>
<stop offset="1"/>
</linearGradient>
<linearGradient id="paint5_linear_3099_166" x1="94.414" y1="38.9444" x2="111.471" y2="128.622" gradientUnits="userSpaceOnUse">
<stop stop-color="#6FA6B9"/>
<stop offset="1" stop-color="white" stop-opacity="0.21"/>
</linearGradient>
<linearGradient id="paint6_linear_3099_166" x1="17.0091" y1="26.6436" x2="29.7039" y2="91.0331" gradientUnits="userSpaceOnUse">
<stop stop-color="#383838"/>
<stop offset="1"/>
</linearGradient>
<linearGradient id="paint7_linear_3099_166" x1="18.5745" y1="27.3111" x2="30.7159" y2="91.4363" gradientUnits="userSpaceOnUse">
<stop stop-color="#6FA6B9"/>
<stop offset="1" stop-color="white" stop-opacity="0.21"/>
</linearGradient>
</defs>
</svg>
