<svg width="200" height="200" viewBox="0 0 200 200" fill="none" xmlns="http://www.w3.org/2000/svg">
<g id="functionIllustration" clip-path="url(#clip0_3099_373)">
<g id="Union" filter="url(#filter0_bd_3099_373)">
<mask id="path-1-inside-1_3099_373" fill="white">
<path fill-rule="evenodd" clip-rule="evenodd" d="M26.9414 60.5613C26.9414 58.1281 28.914 56.1555 31.3472 56.1555H46.3371C48.7704 56.1555 50.7429 58.1281 50.7429 60.5613V87.1686C50.7429 89.6019 48.7704 91.5744 46.3371 91.5744H31.3472C28.9139 91.5744 26.9414 89.6019 26.9414 87.1686V60.5613ZM150.198 60.5613C150.198 58.1281 152.171 56.1555 154.604 56.1555H169.594C172.027 56.1555 174 58.1281 174 60.5613V87.1686C174 89.6019 172.027 91.5744 169.594 91.5744H154.604C152.171 91.5744 150.198 89.6019 150.198 87.1686V60.5613ZM150.033 98.7484C150.033 96.3151 148.06 94.3426 145.627 94.3426H55.3159C52.8826 94.3426 50.9101 96.3151 50.9101 98.7484V101.718C50.9101 104.151 52.8826 106.124 55.3159 106.124H145.627C148.06 106.124 150.033 104.151 150.033 101.718V98.7484ZM26.9414 113.831C26.9414 111.398 28.914 109.425 31.3472 109.425H46.3371C48.7704 109.425 50.7429 111.398 50.7429 113.831V140.438C50.7429 142.871 48.7704 144.844 46.3371 144.844H31.3472C28.9139 144.844 26.9414 142.871 26.9414 140.438V113.831ZM174 113.831C174 111.398 172.027 109.425 169.594 109.425H154.604C152.171 109.425 150.198 111.398 150.198 113.831V140.438C150.198 142.871 152.171 144.844 154.604 144.844H169.594C172.027 144.844 174 142.871 174 140.438V113.831Z"/>
</mask>
<path fill-rule="evenodd" clip-rule="evenodd" d="M26.9414 60.5613C26.9414 58.1281 28.914 56.1555 31.3472 56.1555H46.3371C48.7704 56.1555 50.7429 58.1281 50.7429 60.5613V87.1686C50.7429 89.6019 48.7704 91.5744 46.3371 91.5744H31.3472C28.9139 91.5744 26.9414 89.6019 26.9414 87.1686V60.5613ZM150.198 60.5613C150.198 58.1281 152.171 56.1555 154.604 56.1555H169.594C172.027 56.1555 174 58.1281 174 60.5613V87.1686C174 89.6019 172.027 91.5744 169.594 91.5744H154.604C152.171 91.5744 150.198 89.6019 150.198 87.1686V60.5613ZM150.033 98.7484C150.033 96.3151 148.06 94.3426 145.627 94.3426H55.3159C52.8826 94.3426 50.9101 96.3151 50.9101 98.7484V101.718C50.9101 104.151 52.8826 106.124 55.3159 106.124H145.627C148.06 106.124 150.033 104.151 150.033 101.718V98.7484ZM26.9414 113.831C26.9414 111.398 28.914 109.425 31.3472 109.425H46.3371C48.7704 109.425 50.7429 111.398 50.7429 113.831V140.438C50.7429 142.871 48.7704 144.844 46.3371 144.844H31.3472C28.9139 144.844 26.9414 142.871 26.9414 140.438V113.831ZM174 113.831C174 111.398 172.027 109.425 169.594 109.425H154.604C152.171 109.425 150.198 111.398 150.198 113.831V140.438C150.198 142.871 152.171 144.844 154.604 144.844H169.594C172.027 144.844 174 142.871 174 140.438V113.831Z" fill="url(#paint0_linear_3099_373)" fill-opacity="0.5"/>
<path d="M46.3371 55.1555H31.3472V57.1555H46.3371V55.1555ZM51.7429 87.1686V60.5613H49.7429V87.1686H51.7429ZM31.3472 92.5744H46.3371V90.5744H31.3472V92.5744ZM25.9414 60.5613V87.1686H27.9414V60.5613H25.9414ZM169.594 55.1555H154.604V57.1555H169.594V55.1555ZM175 87.1686V60.5613H173V87.1686H175ZM154.604 92.5744H169.594V90.5744H154.604V92.5744ZM149.198 60.5613V87.1686H151.198V60.5613H149.198ZM55.3159 95.3426H145.627V93.3426H55.3159V95.3426ZM51.9101 101.718V98.7484H49.9101V101.718H51.9101ZM145.627 105.124H55.3159V107.124H145.627V105.124ZM149.033 98.7484V101.718H151.033V98.7484H149.033ZM46.3371 108.425H31.3472V110.425H46.3371V108.425ZM51.7429 140.438V113.831H49.7429V140.438H51.7429ZM31.3472 145.844H46.3371V143.844H31.3472V145.844ZM25.9414 113.831V140.438H27.9414V113.831H25.9414ZM154.604 110.425H169.594V108.425H154.604V110.425ZM151.198 140.438V113.831H149.198V140.438H151.198ZM169.594 143.844H154.604V145.844H169.594V143.844ZM173 113.831V140.438H175V113.831H173ZM169.594 145.844C172.58 145.844 175 143.424 175 140.438H173C173 142.319 171.475 143.844 169.594 143.844V145.844ZM149.198 140.438C149.198 143.424 151.619 145.844 154.604 145.844V143.844C152.723 143.844 151.198 142.319 151.198 140.438H149.198ZM169.594 110.425C171.475 110.425 173 111.95 173 113.831H175C175 110.845 172.58 108.425 169.594 108.425V110.425ZM154.604 108.425C151.619 108.425 149.198 110.845 149.198 113.831H151.198C151.198 111.95 152.723 110.425 154.604 110.425V108.425ZM31.3472 143.844C29.4662 143.844 27.9414 142.319 27.9414 140.438H25.9414C25.9414 143.424 28.3617 145.844 31.3472 145.844V143.844ZM49.7429 140.438C49.7429 142.319 48.2181 143.844 46.3371 143.844V145.844C49.3227 145.844 51.7429 143.424 51.7429 140.438H49.7429ZM31.3472 108.425C28.3617 108.425 25.9414 110.845 25.9414 113.831H27.9414C27.9414 111.95 29.4662 110.425 31.3472 110.425V108.425ZM46.3371 110.425C48.2181 110.425 49.7429 111.95 49.7429 113.831H51.7429C51.7429 110.845 49.3227 108.425 46.3371 108.425V110.425ZM145.627 107.124C148.613 107.124 151.033 104.703 151.033 101.718H149.033C149.033 103.599 147.508 105.124 145.627 105.124V107.124ZM49.9101 101.718C49.9101 104.703 52.3304 107.124 55.3159 107.124V105.124C53.4349 105.124 51.9101 103.599 51.9101 101.718H49.9101ZM145.627 95.3426C147.508 95.3426 149.033 96.8674 149.033 98.7484H151.033C151.033 95.7628 148.613 93.3426 145.627 93.3426V95.3426ZM55.3159 93.3426C52.3303 93.3426 49.9101 95.7628 49.9101 98.7484H51.9101C51.9101 96.8674 53.4349 95.3426 55.3159 95.3426V93.3426ZM154.604 90.5744C152.723 90.5744 151.198 89.0496 151.198 87.1686H149.198C149.198 90.1542 151.619 92.5744 154.604 92.5744V90.5744ZM173 87.1686C173 89.0496 171.475 90.5744 169.594 90.5744V92.5744C172.58 92.5744 175 90.1542 175 87.1686H173ZM154.604 55.1555C151.619 55.1555 149.198 57.5758 149.198 60.5613H151.198C151.198 58.6803 152.723 57.1555 154.604 57.1555V55.1555ZM169.594 57.1555C171.475 57.1555 173 58.6803 173 60.5613H175C175 57.5758 172.58 55.1555 169.594 55.1555V57.1555ZM31.3472 90.5744C29.4662 90.5744 27.9414 89.0496 27.9414 87.1686H25.9414C25.9414 90.1542 28.3617 92.5744 31.3472 92.5744V90.5744ZM49.7429 87.1686C49.7429 89.0496 48.2181 90.5744 46.3371 90.5744V92.5744C49.3227 92.5744 51.7429 90.1542 51.7429 87.1686H49.7429ZM31.3472 55.1555C28.3617 55.1555 25.9414 57.5758 25.9414 60.5613H27.9414C27.9414 58.6803 29.4662 57.1555 31.3472 57.1555V55.1555ZM46.3371 57.1555C48.2181 57.1555 49.7429 58.6803 49.7429 60.5613H51.7429C51.7429 57.5758 49.3227 55.1555 46.3371 55.1555V57.1555Z" fill="url(#paint1_linear_3099_373)" mask="url(#path-1-inside-1_3099_373)"/>
</g>
</g>
<defs>
<filter id="filter0_bd_3099_373" x="5.84141" y="33.0555" width="201.259" height="142.888" filterUnits="userSpaceOnUse" color-interpolation-filters="sRGB">
<feFlood flood-opacity="0" result="BackgroundImageFix"/>
<feGaussianBlur in="BackgroundImageFix" stdDeviation="9.91304"/>
<feComposite in2="SourceAlpha" operator="in" result="effect1_backgroundBlur_3099_373"/>
<feColorMatrix in="SourceAlpha" type="matrix" values="0 0 0 0 0 0 0 0 0 0 0 0 0 0 0 0 0 0 127 0" result="hardAlpha"/>
<feOffset dx="6" dy="4"/>
<feGaussianBlur stdDeviation="13.55"/>
<feColorMatrix type="matrix" values="0 0 0 0 0.41688 0 0 0 0 0.710716 0 0 0 0 0.873958 0 0 0 0.28 0"/>
<feBlend mode="normal" in2="effect1_backgroundBlur_3099_373" result="effect2_dropShadow_3099_373"/>
<feBlend mode="normal" in="SourceGraphic" in2="effect2_dropShadow_3099_373" result="shape"/>
</filter>
<linearGradient id="paint0_linear_3099_373" x1="26.9414" y1="56.1555" x2="39.4731" y2="158.596" gradientUnits="userSpaceOnUse">
<stop stop-color="#383838"/>
<stop offset="1"/>
</linearGradient>
<linearGradient id="paint1_linear_3099_373" x1="30.863" y1="57.1931" x2="42.8272" y2="159.033" gradientUnits="userSpaceOnUse">
<stop stop-color="#44CEFD"/>
<stop offset="1" stop-color="#80D2ED" stop-opacity="0.46"/>
</linearGradient>
<clipPath id="clip0_3099_373">
<rect width="200" height="200" fill="white"/>
</clipPath>
</defs>
</svg>
