<svg width="37" height="19" viewBox="0 0 37 19" fill="none" xmlns="http://www.w3.org/2000/svg">
<path fill-rule="evenodd" clip-rule="evenodd" d="M22.1304 11.6956C22.4091 13.1627 21.6543 14.3813 21.0272 15.5641C20.3306 16.6646 19.1809 17.6105 17.799 17.469C14.698 17.4216 11.6672 16.9366 8.8566 16.0726C8.72899 16.0373 8.60137 15.9542 8.53152 15.8361C8.47337 15.6703 8.55493 15.5164 8.67084 15.4103C11.2376 13.2923 14.2917 12.3107 17.3111 11.281C18.4374 10.9498 19.634 10.5947 20.8996 10.7605C21.4217 10.8317 21.9443 11.1987 22.1304 11.6956ZM32.7099 5.42534C34.15 6.63201 35.4507 8.27681 35.0093 10.2643C34.2893 13.1985 31.154 14.7602 28.6571 15.7538C27.2982 16.2154 25.928 16.6889 24.4416 16.8308C24.3487 16.8189 24.1976 16.8424 24.1742 16.7004L24.209 16.535C26.3226 14.1094 27.925 11.3887 29.3307 8.63186C29.9809 7.38941 30.585 6.11197 31.1423 4.85759C31.2235 4.76297 31.305 4.71565 31.3979 4.68027C31.9201 4.72718 32.292 5.14147 32.7099 5.42534ZM12.4446 2.30192L12.3982 2.47925C9.34403 6.01655 7.33499 10.122 5.43053 14.2036C5.059 14.5586 4.6988 14.0851 4.362 13.9313C2.66633 12.7958 1.1334 10.9617 1.57478 8.78492C2.2831 5.94578 5.15149 4.43138 7.54417 3.40244C8.9608 2.85814 10.436 2.4204 11.9919 2.17191C12.1547 2.17152 12.3635 2.14806 12.4446 2.30192ZM27.6003 2.86967C27.7744 2.9643 27.9835 2.99968 28.0881 3.17701C28.181 3.37818 27.9952 3.50819 27.8906 3.6386C25.4867 5.55495 22.7346 6.62008 19.9239 7.5548C18.4952 7.90984 17.0551 8.54876 15.4644 8.19372C15.0925 8.09909 14.7561 7.8506 14.547 7.48363C14.152 6.37159 14.6863 5.21224 15.1507 4.24213C15.7661 3.02354 16.8581 1.59184 18.3676 1.56838C21.6192 1.54453 24.6851 2.04151 27.6003 2.86967ZM31.6184 2.9643C34.0805 4.33676 36.8677 6.75009 36.5774 9.96813C36.2406 12.9496 33.5115 15.0318 31.0728 16.2861C23.9537 19.7527 13.9549 19.8588 6.60364 16.8304C4.11809 15.7776 1.33087 13.9674 0.285369 11.246C-0.51583 9.00996 0.459424 6.67932 2.09734 5.12954C5.52302 1.95881 9.88962 0.870622 14.3842 0.243234C19.262 -0.360298 24.3947 0.172067 28.7613 1.69839C29.737 2.06536 30.7009 2.46772 31.6184 2.9643Z" fill="#003984"/>
</svg>
