<svg width="75" height="40" viewBox="0 0 75 40" fill="none" xmlns="http://www.w3.org/2000/svg">
<path fill-rule="evenodd" clip-rule="evenodd" d="M45.2609 23.3913C45.8182 26.3254 44.3087 28.7626 43.0544 31.1283C41.6611 33.3293 39.3618 35.221 36.5979 34.9379C30.396 34.8433 24.3345 33.8732 18.7132 32.1453C18.458 32.0745 18.2027 31.9083 18.063 31.6721C17.9467 31.3406 18.1099 31.0328 18.3417 30.8205C23.4751 26.5847 29.5835 24.6214 35.6223 22.5619C37.8749 21.8995 40.2679 21.1895 42.7991 21.521C43.8435 21.6634 44.8886 22.3973 45.2609 23.3913ZM66.4199 10.8507C69.3 13.264 71.9014 16.5536 71.0187 20.5287C69.5786 26.397 63.308 29.5204 58.3142 31.5075C55.5965 32.4307 52.8561 33.3778 49.8831 33.6617C49.6973 33.6378 49.3953 33.6847 49.3484 33.4008L49.4179 33.0701C53.6452 28.2187 56.85 22.7774 59.6614 17.2637C60.9617 14.7788 62.17 12.2239 63.2846 9.71518C63.4469 9.52593 63.61 9.43131 63.7958 9.36054C64.8401 9.45437 65.584 10.2829 66.4199 10.8507ZM25.8893 4.60385L25.7964 4.95849C19.6881 12.0331 15.67 20.244 11.8611 28.4072C11.118 29.1173 10.3976 28.1702 9.72401 27.8625C6.33267 25.5915 3.2668 21.9234 4.14956 17.5698C5.5662 11.8916 11.303 8.86276 16.0883 6.80487C18.9216 5.71629 21.872 4.84081 24.9839 4.34383C25.3093 4.34303 25.7269 4.29612 25.8893 4.60385ZM56.2006 5.73935C56.5487 5.9286 56.9671 5.99937 57.1762 6.35401C57.362 6.75637 56.9905 7.01639 56.7813 7.2772C51.9733 11.1099 46.4691 13.2402 40.8479 15.1096C37.9904 15.8197 35.1103 17.0975 31.9289 16.3874C31.1851 16.1982 30.5123 15.7012 30.0939 14.9673C29.304 12.7432 30.3725 10.4245 31.3014 8.48426C32.5322 6.04708 34.7161 3.18368 37.7352 3.13676C44.2384 3.08905 50.3701 4.08301 56.2006 5.73935ZM64.2368 5.9286C69.1611 8.67351 74.7355 13.5002 74.1548 19.9363C73.4812 25.8992 68.0231 30.0635 63.1456 32.5723C48.9075 39.5053 28.9099 39.7177 14.2073 33.6609C9.23618 31.5553 3.66174 27.9349 1.57074 22.4919C-0.0316604 18.0199 1.91885 13.3586 5.19467 10.2591C12.046 3.91762 20.7792 1.74124 29.7684 0.486469C39.5241 -0.720596 49.7894 0.344134 58.5226 3.39678C60.4739 4.13072 62.4018 4.93543 64.2368 5.9286Z" fill="white"/>
</svg>
