<svg width="145" height="19" viewBox="0 0 145 19" fill="none" xmlns="http://www.w3.org/2000/svg">
<g clip-path="url(#clip0_285_860)">
<path fill-rule="evenodd" clip-rule="evenodd" d="M135.519 4.8164H129.583C128.587 4.87644 128.309 5.12811 128.309 6.36022V9.75678H135.519V4.8164ZM138.679 2.09653V16.9073H135.519V12.65H128.309V16.9073H125.148V5.29629C125.148 3.24476 125.964 2.09653 128.309 2.09653H138.679ZM121.988 5.2935V13.3088C121.988 15.8605 120.582 16.9045 118.828 16.9045H108.859V2.09375H118.828C121.52 2.09375 121.988 3.83755 121.988 5.2935ZM118.79 6.18489C118.79 5.37342 118.305 4.81362 117.455 4.81362H112.02V14.0678L117.455 14.0674C118.693 14.0034 118.79 13.2472 118.79 12.6472V6.18489ZM44.438 2.09375H47.5983V7.93147H54.669V2.09375H57.8293V16.9041H54.669V10.8601H47.5983V16.9041H44.438V2.09375ZM63.2457 2.09375L67.2076 8.14855L71.1219 2.09375H74.9593L68.7862 11.5626V16.9045H65.6255V11.5618L59.4095 2.09375H63.2457ZM92.6992 2.09375H102.883C104.335 2.09375 105.74 2.30129 105.699 5.2935V16.9045H102.539V6.35744C102.539 5.08199 102.389 4.81362 101.406 4.81362H95.8603V16.9045H92.6992V2.09375ZM145 2.09653V16.9073H141.839V2.09653H145ZM76.5398 16.9045H86.7232C88.7479 16.9045 89.5803 16.3078 89.5393 13.3338V2.09375H86.379V12.6667C86.379 13.9342 86.2288 14.0881 85.2465 14.0881H79.7005L79.7001 2.09375H76.5398V16.9045Z" fill="#003984"/>
<path fill-rule="evenodd" clip-rule="evenodd" d="M22.1302 11.6956C22.4088 13.1627 21.6541 14.3813 21.0269 15.5641C20.3303 16.6646 19.1806 17.6105 17.7987 17.469C14.6977 17.4216 11.667 16.9366 8.85636 16.0726C8.72874 16.0373 8.60113 15.9542 8.53127 15.8361C8.47313 15.6703 8.55469 15.5164 8.6706 15.4103C11.2373 13.2923 14.2915 12.3107 17.3109 11.281C18.4372 10.9498 19.6337 10.5947 20.8993 10.7605C21.4215 10.8317 21.944 11.1987 22.1302 11.6956ZM32.7097 5.42534C34.1497 6.63201 35.4505 8.27681 35.0091 10.2643C34.2891 13.1985 31.1537 14.7602 28.6569 15.7538C27.298 16.2154 25.9278 16.6889 24.4413 16.8308C24.3484 16.8189 24.1974 16.8424 24.174 16.7004L24.2087 16.535C26.3223 14.1094 27.9247 11.3887 29.3305 8.63186C29.9806 7.38941 30.5847 6.11197 31.142 4.85759C31.2232 4.76297 31.3048 4.71565 31.3977 4.68027C31.9198 4.72718 32.2917 5.14147 32.7097 5.42534ZM12.4444 2.30192L12.3979 2.47925C9.34379 6.01655 7.33474 10.122 5.43028 14.2036C5.05876 14.5586 4.69855 14.0851 4.36176 13.9313C2.66609 12.7958 1.13316 10.9617 1.57454 8.78492C2.28286 5.94578 5.15125 4.43138 7.54392 3.40244C8.96056 2.85814 10.4357 2.4204 11.9917 2.17191C12.1544 2.17152 12.3632 2.14806 12.4444 2.30192ZM27.6001 2.86967C27.7741 2.9643 27.9833 2.99968 28.0879 3.17701C28.1808 3.37818 27.995 3.50819 27.8904 3.6386C25.4864 5.55495 22.7343 6.62008 19.9237 7.5548C18.4949 7.90984 17.0549 8.54876 15.4642 8.19372C15.0923 8.09909 14.7559 7.8506 14.5467 7.48363C14.1518 6.37159 14.686 5.21224 15.1504 4.24213C15.7659 3.02354 16.8578 1.59184 18.3673 1.56838C21.619 1.54453 24.6848 2.04151 27.6001 2.86967ZM31.6181 2.9643C34.0803 4.33676 36.8675 6.75009 36.5772 9.96813C36.2404 12.9496 33.5113 15.0318 31.0726 16.2861C23.9535 19.7527 13.9547 19.8588 6.6034 16.8304C4.11785 15.7776 1.33063 13.9674 0.285125 11.246C-0.516074 9.00996 0.45918 6.67932 2.09709 5.12954C5.52278 1.95881 9.88937 0.870622 14.384 0.243234C19.2618 -0.360298 24.3945 0.172067 28.7611 1.69839C29.7367 2.06536 30.7006 2.46772 31.6181 2.9643Z" fill="#003984"/>
</g>
<defs>
<clipPath id="clip0_285_860">
<rect width="145" height="19" fill="white"/>
</clipPath>
</defs>
</svg>
