<svg width="1920" height="222" viewBox="0 0 1920 222" fill="none" xmlns="http://www.w3.org/2000/svg">
<path d="M560.373 97.056H582.265V102.828H567.029V120.144H578.521C580.497 120.144 582.352 120.005 584.085 119.728C585.853 119.416 587.396 118.913 588.713 118.22V92.948H595.369V137.876H588.713V122.952C587.049 124.061 585.056 124.841 582.733 125.292C580.445 125.708 577.984 125.916 575.349 125.916H562.921C561.222 125.916 560.373 125.205 560.373 123.784V97.056ZM613.891 112.344H631.155V109.536C627.688 109.259 625.002 108.496 623.095 107.248C621.223 105.965 620.287 104.093 620.287 101.632C620.287 98.824 621.518 96.7613 623.979 95.444C626.475 94.1267 629.976 93.468 634.483 93.468C638.99 93.468 642.474 94.1267 644.935 95.444C647.431 96.7613 648.679 98.824 648.679 101.632C648.679 104.093 647.726 105.965 645.819 107.248C643.947 108.496 641.278 109.259 637.811 109.536V112.344H655.075V117.492H613.891V112.344ZM619.923 120.196H649.043V132.26H626.579V135.016H650.187V139.956H622.419C621.622 139.956 620.998 139.783 620.547 139.436C620.131 139.089 619.923 138.552 619.923 137.824V127.632H642.387V125.032H619.923V120.196ZM626.943 101.632C626.943 102.672 627.584 103.383 628.867 103.764C630.184 104.145 632.056 104.336 634.483 104.336C636.91 104.336 638.764 104.145 640.047 103.764C641.364 103.383 642.023 102.672 642.023 101.632C642.023 100.592 641.364 99.8813 640.047 99.5C638.764 99.1187 636.91 98.928 634.483 98.928C632.056 98.928 630.184 99.1187 628.867 99.5C627.584 99.8813 626.943 100.592 626.943 101.632ZM669.801 118.012H710.985V123.784H701.677V138.084H694.969V123.784H685.921V138.084H679.265V123.784H669.801V118.012ZM675.989 94.404H682.645V106.676H705.837V112.448H678.485C677.688 112.448 677.064 112.292 676.613 111.98C676.197 111.633 675.989 111.079 675.989 110.316V94.404ZM730.287 95.34H736.579V98.928C736.579 101.875 736.77 104.457 737.151 106.676C737.533 108.895 738.365 110.801 739.647 112.396C740.93 110.801 741.762 108.895 742.143 106.676C742.525 104.457 742.715 101.875 742.715 98.928V95.34H749.007V98.772C749.007 100.575 749.077 102.239 749.215 103.764C749.354 105.289 749.631 106.693 750.047 107.976C750.463 109.259 751.035 110.437 751.763 111.512C752.526 112.552 753.514 113.488 754.727 114.32L751.763 119.468C750.099 118.497 748.747 117.249 747.707 115.724C746.667 114.164 746.026 112.691 745.783 111.304C745.679 112.067 745.437 112.864 745.055 113.696C744.674 114.493 744.206 115.291 743.651 116.088C743.097 116.851 742.473 117.579 741.779 118.272C741.086 118.931 740.375 119.503 739.647 119.988C738.919 119.503 738.209 118.931 737.515 118.272C736.822 117.579 736.198 116.851 735.643 116.088C735.089 115.291 734.621 114.493 734.239 113.696C733.858 112.864 733.615 112.067 733.511 111.304C733.269 112.691 732.627 114.164 731.587 115.724C730.547 117.249 729.195 118.497 727.531 119.468L724.567 114.32C725.781 113.488 726.751 112.552 727.479 111.512C728.242 110.437 728.831 109.259 729.247 107.976C729.663 106.693 729.941 105.289 730.079 103.764C730.218 102.239 730.287 100.575 730.287 98.772V95.34ZM755.507 92.948H762.007V105.116H767.831V110.888H762.007V126.28H755.507V92.948ZM733.719 122.744H740.375V132.468H763.463V138.136H736.215C735.418 138.136 734.794 137.963 734.343 137.616C733.927 137.269 733.719 136.732 733.719 136.004V122.744ZM772.218 96.952H794.11V102.62H778.874V108.86H792.81V114.372H778.874V121.028H789.742C791.718 121.028 793.555 120.889 795.254 120.612C796.987 120.335 798.512 119.849 799.83 119.156V92.948H806.486V108.444H812.57V114.164H806.486V137.876H799.83V123.732C798.166 124.841 796.19 125.621 793.902 126.072C791.614 126.488 789.152 126.696 786.518 126.696H774.766C773.067 126.696 772.218 125.985 772.218 124.564V96.952ZM817.632 105.064H823.768V114.528C823.768 115.637 823.785 116.729 823.82 117.804C823.855 118.844 823.924 119.711 824.028 120.404H825.276C825.519 120.404 825.744 120.404 825.952 120.404C826.16 120.404 826.385 120.387 826.628 120.352C826.732 119.659 826.801 118.792 826.836 117.752C826.871 116.712 826.888 115.637 826.888 114.528V105.064H833.024V112.916C833.024 114.476 832.885 115.897 832.608 117.18C832.331 118.428 832.001 119.451 831.62 120.248C833.145 120.144 834.567 119.867 835.884 119.416L836.872 123.732C836.144 124.183 835.399 124.547 834.636 124.824C833.873 125.101 833.059 125.327 832.192 125.5C831.36 125.639 830.441 125.743 829.436 125.812C828.465 125.847 827.391 125.864 826.212 125.864H815.032V120.404H819.088C818.672 119.676 818.325 118.688 818.048 117.44C817.771 116.157 817.632 114.771 817.632 113.28V105.064ZM838.276 93.728H844.568V136.576H838.276V114.008H834.844V108.34H838.276V93.728ZM847.48 92.948H853.824V137.876H847.48V92.948ZM815.812 97.212H834.844V102.776H815.812V97.212ZM889.67 92.948H896.326V109.224H902.15V114.944H896.326V137.876H889.67V126.696C887.902 127.701 885.874 128.377 883.586 128.724C881.333 129.036 878.958 129.192 876.462 129.192H859.666V123.368H870.482V116.868C867.64 116.313 865.404 115.1 863.774 113.228C862.18 111.321 861.382 108.964 861.382 106.156C861.382 104.492 861.677 102.984 862.266 101.632C862.856 100.28 863.688 99.1187 864.762 98.148C865.837 97.1773 867.137 96.432 868.662 95.912C870.188 95.3573 871.904 95.08 873.81 95.08C875.717 95.08 877.416 95.3573 878.906 95.912C880.432 96.432 881.714 97.1773 882.754 98.148C883.829 99.1187 884.644 100.28 885.198 101.632C885.788 102.984 886.082 104.492 886.082 106.156C886.082 108.964 885.285 111.321 883.69 113.228C882.13 115.1 879.946 116.313 877.138 116.868V123.368H879.634C881.61 123.368 883.43 123.281 885.094 123.108C886.793 122.9 888.318 122.501 889.67 121.912V92.948ZM868.038 106.156C868.038 107.82 868.558 109.137 869.598 110.108C870.638 111.079 872.042 111.564 873.81 111.564C875.544 111.564 876.93 111.079 877.97 110.108C879.045 109.137 879.582 107.82 879.582 106.156C879.582 104.457 879.045 103.14 877.97 102.204C876.93 101.233 875.544 100.748 873.81 100.748C872.042 100.748 870.638 101.233 869.598 102.204C868.558 103.14 868.038 104.457 868.038 106.156ZM923.844 122.484H951.872V138.448H926.34C925.543 138.448 924.919 138.275 924.468 137.928C924.052 137.581 923.844 137.044 923.844 136.316V122.484ZM915.16 101.424H942.044V106.78H937.78C938.855 108.028 939.392 109.449 939.392 111.044C939.392 112.361 939.132 113.575 938.612 114.684C938.127 115.793 937.416 116.764 936.48 117.596C935.544 118.393 934.418 119.017 933.1 119.468C931.783 119.919 930.292 120.144 928.628 120.144C926.964 120.144 925.456 119.919 924.104 119.468C922.787 119.017 921.66 118.393 920.724 117.596C919.788 116.764 919.06 115.793 918.54 114.684C918.055 113.575 917.812 112.361 917.812 111.044C917.812 109.449 918.332 108.028 919.372 106.78H915.16V101.424ZM945.216 92.948H951.872V103.868H957.956V109.64H951.872V120.04H945.216V92.948ZM921.036 93.624H936.168V99.136H921.036V93.624ZM930.5 128.1V132.78H945.216V128.1H930.5ZM924.156 111.044C924.156 112.153 924.538 113.089 925.3 113.852C926.098 114.58 927.207 114.944 928.628 114.944C930.05 114.944 931.142 114.58 931.904 113.852C932.667 113.089 933.048 112.153 933.048 111.044C933.048 109.969 932.667 109.051 931.904 108.288C931.142 107.491 930.05 107.092 928.628 107.092C927.207 107.092 926.098 107.491 925.3 108.288C924.538 109.051 924.156 109.969 924.156 111.044ZM971.911 97.16H980.855V101.736C980.855 102.949 980.837 104.145 980.803 105.324C980.768 106.468 980.699 107.595 980.595 108.704H984.287V93.728H990.371V136.576H984.287V114.424H979.815C979.329 116.816 978.619 119.139 977.683 121.392C976.781 123.611 975.585 125.812 974.095 127.996L969.415 125.136C970.489 123.541 971.391 121.843 972.119 120.04C972.847 118.203 973.419 116.383 973.835 114.58C974.285 112.743 974.597 110.957 974.771 109.224C974.944 107.456 975.031 105.809 975.031 104.284V102.828H971.911V97.16ZM993.231 92.948H999.419V137.876H993.231V92.948ZM960.991 97.16H970.507V101.476C970.507 103.764 970.403 105.931 970.195 107.976C970.021 110.021 969.692 111.997 969.207 113.904C968.721 115.776 968.063 117.596 967.231 119.364C966.433 121.132 965.411 122.9 964.163 124.668L959.587 121.548C960.557 120.231 961.372 118.827 962.031 117.336C962.689 115.811 963.192 114.303 963.539 112.812C963.92 111.287 964.18 109.796 964.319 108.34C964.492 106.849 964.579 105.48 964.579 104.232V102.828H960.991V97.16ZM1015.81 104.596H1042.69V110.16H1037.65C1038.55 110.957 1039.24 111.911 1039.73 113.02C1040.25 114.129 1040.51 115.395 1040.51 116.816C1040.51 118.411 1040.23 119.867 1039.68 121.184C1039.12 122.501 1038.34 123.628 1037.34 124.564C1036.37 125.5 1035.19 126.228 1033.8 126.748C1032.45 127.268 1030.94 127.528 1029.28 127.528C1027.61 127.528 1026.09 127.268 1024.7 126.748C1023.31 126.228 1022.12 125.5 1021.11 124.564C1020.11 123.628 1019.33 122.501 1018.77 121.184C1018.22 119.867 1017.94 118.411 1017.94 116.816C1017.94 115.395 1018.18 114.129 1018.67 113.02C1019.19 111.911 1019.9 110.957 1020.8 110.16H1015.81V104.596ZM1045.86 92.948H1052.52V108.912H1058.6V114.684H1052.52V137.876H1045.86V92.948ZM1021.68 95.704H1036.82V101.372H1021.68V95.704ZM1029.28 111.512C1027.86 111.512 1026.68 111.997 1025.74 112.968C1024.84 113.904 1024.39 115.187 1024.39 116.816C1024.39 118.445 1024.84 119.728 1025.74 120.664C1026.68 121.6 1027.86 122.068 1029.28 122.068C1030.7 122.068 1031.86 121.6 1032.76 120.664C1033.66 119.728 1034.11 118.445 1034.11 116.816C1034.11 115.187 1033.66 113.904 1032.76 112.968C1031.86 111.997 1030.7 111.512 1029.28 111.512ZM1061.22 115.36H1102.41V120.768H1061.22V115.36ZM1067.26 124.044H1073.91V132.624H1097V138.292H1069.75C1068.95 138.292 1068.33 138.119 1067.88 137.772C1067.46 137.425 1067.26 136.888 1067.26 136.16V124.044ZM1067.57 94.456H1074.22V105.272H1096.69V110.68H1070.06C1069.27 110.68 1068.64 110.507 1068.19 110.16C1067.78 109.813 1067.57 109.276 1067.57 108.548V94.456ZM1139.08 93.728H1145.32V108.288H1149.43V92.948H1155.77V137.876H1149.43V114.06H1145.32V136.576H1139.08V93.728ZM1124.1 96.536H1130.65V103.66C1130.65 105.671 1130.76 107.491 1130.97 109.12C1131.21 110.749 1131.62 112.257 1132.21 113.644C1132.84 115.031 1133.69 116.313 1134.76 117.492C1135.84 118.636 1137.21 119.728 1138.87 120.768L1135.28 125.708C1134.31 125.153 1133.39 124.512 1132.53 123.784C1131.66 123.056 1130.88 122.293 1130.19 121.496C1129.53 120.699 1128.97 119.901 1128.52 119.104C1128.07 118.272 1127.74 117.509 1127.53 116.816C1127.36 117.648 1127.03 118.515 1126.55 119.416C1126.09 120.317 1125.51 121.219 1124.78 122.12C1124.08 122.987 1123.29 123.836 1122.39 124.668C1121.48 125.465 1120.53 126.159 1119.53 126.748L1115.89 121.912C1117.55 120.768 1118.92 119.572 1119.99 118.324C1121.07 117.041 1121.9 115.672 1122.49 114.216C1123.11 112.76 1123.53 111.183 1123.74 109.484C1123.98 107.785 1124.1 105.948 1124.1 103.972V96.536ZM1167.8 96.328H1197.13V111.096H1174.4V115.204H1197.86V120.716H1185.79V127.268H1203.06V133.04H1161.87V127.268H1179.14V120.716H1170.3C1169.5 120.716 1168.87 120.543 1168.42 120.196C1168.01 119.849 1167.8 119.312 1167.8 118.584V105.844H1190.52V101.84H1167.8V96.328ZM1213.01 103.14C1213.01 101.719 1213.32 100.436 1213.94 99.292C1214.6 98.148 1215.54 97.1773 1216.75 96.38C1217.96 95.548 1219.44 94.9067 1221.17 94.456C1222.94 94.0053 1224.95 93.78 1227.2 93.78C1229.42 93.78 1231.41 94.0053 1233.18 94.456C1234.95 94.9067 1236.44 95.548 1237.65 96.38C1238.87 97.1773 1239.79 98.148 1240.41 99.292C1241.07 100.436 1241.4 101.719 1241.4 103.14C1241.4 105.983 1240.15 108.236 1237.65 109.9C1235.19 111.564 1231.71 112.396 1227.2 112.396C1222.7 112.396 1219.19 111.564 1216.7 109.9C1214.24 108.236 1213.01 105.983 1213.01 103.14ZM1206.61 115.1H1247.79V120.508H1231.15V128.308H1224.5V120.508H1206.61V115.1ZM1212.43 124.46H1219.09V132.624H1242.39V138.292H1214.93C1214.13 138.292 1213.51 138.119 1213.06 137.772C1212.64 137.425 1212.43 136.888 1212.43 136.16V124.46ZM1219.66 103.14C1219.66 104.388 1220.3 105.359 1221.59 106.052C1222.9 106.745 1224.78 107.092 1227.2 107.092C1229.63 107.092 1231.48 106.745 1232.77 106.052C1234.08 105.359 1234.74 104.388 1234.74 103.14C1234.74 101.927 1234.08 100.973 1232.77 100.28C1231.48 99.5867 1229.63 99.24 1227.2 99.24C1224.78 99.24 1222.9 99.5867 1221.59 100.28C1220.3 100.973 1219.66 101.927 1219.66 103.14ZM1271.57 129.348C1271.57 127.857 1271.88 126.505 1272.5 125.292C1273.16 124.044 1274.1 122.987 1275.31 122.12C1276.53 121.219 1278.02 120.525 1279.78 120.04C1281.59 119.52 1283.63 119.26 1285.92 119.26C1288.21 119.26 1290.24 119.52 1292 120.04C1293.77 120.525 1295.26 121.219 1296.48 122.12C1297.69 122.987 1298.61 124.044 1299.23 125.292C1299.89 126.505 1300.22 127.857 1300.22 129.348C1300.22 130.839 1299.89 132.191 1299.23 133.404C1298.61 134.652 1297.69 135.709 1296.48 136.576C1295.26 137.477 1293.77 138.171 1292 138.656C1290.24 139.141 1288.21 139.384 1285.92 139.384C1283.63 139.384 1281.59 139.141 1279.78 138.656C1278.02 138.171 1276.53 137.477 1275.31 136.576C1274.1 135.709 1273.16 134.652 1272.5 133.404C1271.88 132.191 1271.57 130.839 1271.57 129.348ZM1278.22 129.348C1278.22 130.7 1278.88 131.775 1280.2 132.572C1281.52 133.369 1283.42 133.768 1285.92 133.768C1288.42 133.768 1290.31 133.369 1291.59 132.572C1292.91 131.775 1293.56 130.7 1293.56 129.348C1293.56 127.961 1292.91 126.869 1291.59 126.072C1290.31 125.275 1288.42 124.876 1285.92 124.876C1283.42 124.876 1281.52 125.275 1280.2 126.072C1278.88 126.869 1278.22 127.961 1278.22 129.348ZM1264.7 95.34H1285.82V97.16C1285.82 97.5067 1285.82 97.8533 1285.82 98.2C1285.82 98.512 1285.8 98.824 1285.76 99.136H1293.41V92.948H1300.06V118.22H1293.41V114.32H1284.83V108.756H1293.41V104.752H1285.04C1284.41 106.728 1283.46 108.479 1282.18 110.004C1280.93 111.495 1279.4 112.812 1277.6 113.956C1275.83 115.065 1273.82 116.001 1271.57 116.764C1269.35 117.527 1266.97 118.133 1264.44 118.584L1262.57 112.708C1264.96 112.327 1267.15 111.772 1269.12 111.044C1271.13 110.281 1272.87 109.397 1274.32 108.392C1275.78 107.352 1276.92 106.208 1277.76 104.96C1278.59 103.712 1279.02 102.412 1279.06 101.06H1264.7V95.34ZM1316.31 122.484H1344.85V138.448H1318.8C1318 138.448 1317.38 138.275 1316.93 137.928C1316.51 137.581 1316.31 137.044 1316.31 136.316V122.484ZM1307 101.424H1333.26V106.78H1329.57C1330.05 107.369 1330.43 108.028 1330.71 108.756C1331.02 109.449 1331.18 110.212 1331.18 111.044C1331.18 112.361 1330.92 113.575 1330.4 114.684C1329.91 115.793 1329.2 116.764 1328.27 117.596C1327.33 118.393 1326.19 119.017 1324.83 119.468C1323.52 119.919 1322.03 120.144 1320.36 120.144C1318.7 120.144 1317.19 119.919 1315.84 119.468C1314.52 119.017 1313.39 118.393 1312.46 117.596C1311.52 116.764 1310.79 115.793 1310.27 114.684C1309.79 113.575 1309.55 112.361 1309.55 111.044C1309.55 109.449 1310.07 108.028 1311.11 106.78H1307V101.424ZM1338.2 92.948H1344.85V120.04H1338.2V114.32H1333V108.652H1338.2V92.948ZM1312.77 93.624H1327.9V99.136H1312.77V93.624ZM1322.96 128.1V132.78H1338.2V128.1H1322.96ZM1315.89 111.044C1315.89 112.153 1316.27 113.089 1317.03 113.852C1317.83 114.58 1318.94 114.944 1320.36 114.944C1321.78 114.944 1322.88 114.58 1323.64 113.852C1324.4 113.089 1324.78 112.153 1324.78 111.044C1324.78 109.969 1324.4 109.051 1323.64 108.288C1322.88 107.491 1321.78 107.092 1320.36 107.092C1318.94 107.092 1317.83 107.491 1317.03 108.288C1316.27 109.051 1315.89 109.969 1315.89 111.044ZM1353.61 96.64H1360.42L1359.12 120.04H1354.96L1353.61 96.64ZM1352.98 124.044H1360.99V132H1352.98V124.044Z" fill="#171719"/>
</svg>
