<svg width="400" height="215" viewBox="0 0 400 215" fill="none" xmlns="http://www.w3.org/2000/svg">
<g filter="url(#filter0_ddd_2428_6452)">
<rect x="20.5" y="19.5" width="359" height="159" rx="11.5" fill="white"/>
<rect x="20.5" y="19.5" width="359" height="159" rx="11.5" stroke="#E1E2E4"/>
<mask id="path-2-inside-1_2428_6452" fill="white">
<path d="M356 20L345 8L334 20L356 20Z"/>
</mask>
<path d="M356 20L345 8L334 20L356 20Z" fill="white"/>
<path d="M345 8L345.737 7.32428C345.548 7.11765 345.28 7 345 7C344.72 7 344.452 7.11765 344.263 7.32428L345 8ZM356 20L356 21L358.273 21L356.737 19.3243L356 20ZM334 20L333.263 19.3243L331.727 21L334 21V20ZM344.263 8.67572L355.263 20.6757L356.737 19.3243L345.737 7.32428L344.263 8.67572ZM334.737 20.6757L345.737 8.67572L344.263 7.32428L333.263 19.3243L334.737 20.6757ZM356 19L334 19V21L356 21L356 19Z" fill="#E1E2E4" mask="url(#path-2-inside-1_2428_6452)"/>
<rect x="355" y="20" width="20" height="1" transform="rotate(-180 355 20)" fill="white"/>
<mask id="path-5-inside-2_2428_6452" fill="white">
<path d="M334.273 20H335.438L336.273 19H334.273V20Z"/>
</mask>
<path d="M334.273 20H335.438L336.273 19H334.273V20Z" fill="#C6C6C6"/>
<path d="M334.273 20V21H333.273V20H334.273ZM335.438 20L336.205 20.6414L335.905 21H335.438V20ZM336.273 19V18H338.413L337.041 19.6414L336.273 19ZM334.273 19H333.273V18H334.273V19ZM334.273 19H335.438V21H334.273V19ZM334.67 19.3586L335.506 18.3586L337.041 19.6414L336.205 20.6414L334.67 19.3586ZM336.273 20H334.273V18H336.273V20ZM335.273 19V20H333.273V19H335.273Z" fill="#E1E2E4" mask="url(#path-5-inside-2_2428_6452)"/>
<mask id="path-7-inside-3_2428_6452" fill="white">
<path d="M355.727 20H354.562L353.727 19H355.727V20Z"/>
</mask>
<path d="M355.727 20H354.562L353.727 19H355.727V20Z" fill="#C6C6C6"/>
<path d="M355.727 20V21H356.727V20H355.727ZM354.562 20L353.795 20.6414L354.095 21H354.562V20ZM353.727 19V18H351.587L352.959 19.6414L353.727 19ZM355.727 19H356.727V18H355.727V19ZM355.727 19H354.562V21H355.727V19ZM355.33 19.3586L354.494 18.3586L352.959 19.6414L353.795 20.6414L355.33 19.3586ZM353.727 20H355.727V18H353.727V20ZM354.727 19V20H356.727V19H354.727Z" fill="#E1E2E4" mask="url(#path-7-inside-3_2428_6452)"/>
</g>
<defs>
<filter id="filter0_ddd_2428_6452" x="0" y="0" width="400" height="215" filterUnits="userSpaceOnUse" color-interpolation-filters="sRGB">
<feFlood flood-opacity="0" result="BackgroundImageFix"/>
<feColorMatrix in="SourceAlpha" type="matrix" values="0 0 0 0 0 0 0 0 0 0 0 0 0 0 0 0 0 0 127 0" result="hardAlpha"/>
<feOffset/>
<feGaussianBlur stdDeviation="4"/>
<feComposite in2="hardAlpha" operator="out"/>
<feColorMatrix type="matrix" values="0 0 0 0 0 0 0 0 0 0 0 0 0 0 0 0 0 0 0.08 0"/>
<feBlend mode="normal" in2="BackgroundImageFix" result="effect1_dropShadow_2428_6452"/>
<feColorMatrix in="SourceAlpha" type="matrix" values="0 0 0 0 0 0 0 0 0 0 0 0 0 0 0 0 0 0 127 0" result="hardAlpha"/>
<feOffset dy="8"/>
<feGaussianBlur stdDeviation="8"/>
<feComposite in2="hardAlpha" operator="out"/>
<feColorMatrix type="matrix" values="0 0 0 0 0 0 0 0 0 0 0 0 0 0 0 0 0 0 0.08 0"/>
<feBlend mode="normal" in2="effect1_dropShadow_2428_6452" result="effect2_dropShadow_2428_6452"/>
<feColorMatrix in="SourceAlpha" type="matrix" values="0 0 0 0 0 0 0 0 0 0 0 0 0 0 0 0 0 0 127 0" result="hardAlpha"/>
<feOffset dy="16"/>
<feGaussianBlur stdDeviation="10"/>
<feComposite in2="hardAlpha" operator="out"/>
<feColorMatrix type="matrix" values="0 0 0 0 0 0 0 0 0 0 0 0 0 0 0 0 0 0 0.12 0"/>
<feBlend mode="normal" in2="effect2_dropShadow_2428_6452" result="effect3_dropShadow_2428_6452"/>
<feBlend mode="normal" in="SourceGraphic" in2="effect3_dropShadow_2428_6452" result="shape"/>
</filter>
</defs>
</svg>
