<svg width="25" height="24" viewBox="0 0 25 24" fill="none" xmlns="http://www.w3.org/2000/svg">
<path fill-rule="evenodd" clip-rule="evenodd" d="M12.5 2C6.97715 2 2.5 6.47715 2.5 12C2.5 13.5113 2.83527 14.9443 3.43548 16.2287L2.56724 20.3995C2.49384 20.7521 2.80605 21.0643 3.15865 20.9909L6.81701 20.2293C8.43082 21.3459 10.389 22 12.5 22C18.0228 22 22.5 17.5228 22.5 12C22.5 6.47715 18.0228 2 12.5 2Z" fill="#FF8126"/>
<path d="M11.3352 14.793V14.6545C11.3388 14.0117 11.3991 13.5004 11.5163 13.1204C11.6371 12.7404 11.8075 12.435 12.0277 12.2042C12.2479 11.9698 12.516 11.755 12.832 11.5597C13.0487 11.4247 13.2422 11.2773 13.4126 11.1175C13.5866 10.9542 13.7234 10.7731 13.8228 10.5742C13.9222 10.3718 13.9719 10.1463 13.9719 9.89773C13.9719 9.61719 13.9062 9.37393 13.7749 9.16797C13.6435 8.962 13.4659 8.8022 13.2422 8.68857C13.022 8.57493 12.7752 8.51811 12.5018 8.51811C12.2496 8.51811 12.0099 8.57315 11.7827 8.68324C11.5589 8.78977 11.3725 8.95312 11.2234 9.1733C11.0778 9.38991 10.9961 9.66513 10.9783 9.99893H9.08203C9.09979 9.32422 9.26314 8.75959 9.57209 8.30504C9.88459 7.8505 10.2965 7.50959 10.8079 7.28232C11.3228 7.05504 11.891 6.94141 12.5124 6.94141C13.1907 6.94141 13.7873 7.06037 14.3022 7.2983C14.8207 7.53622 15.2237 7.87536 15.5114 8.3157C15.8026 8.75249 15.9482 9.27095 15.9482 9.87109C15.9482 10.2759 15.8825 10.6381 15.7511 10.9577C15.6232 11.2773 15.4403 11.5614 15.2024 11.81C14.9645 12.0586 14.6822 12.2805 14.3555 12.4759C14.0678 12.6534 13.8317 12.8381 13.647 13.0298C13.4659 13.2216 13.331 13.4471 13.2422 13.7063C13.157 13.962 13.1126 14.2781 13.109 14.6545V14.793H11.3352ZM12.2621 18.1168C11.9425 18.1168 11.6673 18.0032 11.4364 17.7759C11.2056 17.5487 11.0902 17.2717 11.0902 16.945C11.0902 16.6254 11.2056 16.3519 11.4364 16.1246C11.6673 15.8974 11.9425 15.7837 12.2621 15.7837C12.5781 15.7837 12.8516 15.8974 13.0824 16.1246C13.3168 16.3519 13.4339 16.6254 13.4339 16.945C13.4339 17.1616 13.3789 17.3587 13.2688 17.5362C13.1623 17.7138 13.0202 17.8558 12.8427 17.9624C12.6687 18.0653 12.4751 18.1168 12.2621 18.1168Z" fill="white"/>
</svg>
