<svg width="46" height="50" viewBox="0 0 46 50" fill="none" xmlns="http://www.w3.org/2000/svg">
<path d="M10.3384 9.40326C14.0452 6.78509 18.4824 5.40092 23.0203 5.44722C27.5583 5.49351 31.9663 6.96792 35.6189 9.66117C39.2715 12.3544 41.983 16.1297 43.3686 20.4512C44.7542 24.7726 44.7435 29.4207 43.338 33.7357C41.9325 38.0508 39.2036 41.8135 35.5387 44.4899C31.8737 47.1663 27.4589 48.6204 22.9208 48.6458C18.3827 48.6711 13.9519 47.2665 10.2573 44.6313C6.56263 41.9961 3.79183 38.2641 2.33815 33.9651" stroke="white" stroke-width="2.4"/>
<path d="M12.5996 33.6461L23.3996 28.2461V10.2461" stroke="white" stroke-width="2.4"/>
<path d="M17.1533 12.4673L9.7875 9.71579L11.9419 2.15373" stroke="white" stroke-width="2.4" stroke-linecap="round" stroke-linejoin="round"/>
</svg>
