<svg width="32" height="32" viewBox="0 0 32 32" fill="none" xmlns="http://www.w3.org/2000/svg">
<path fill-rule="evenodd" clip-rule="evenodd" d="M6.1503 6.15079C6.61893 5.68216 7.37872 5.68216 7.84735 6.15079L15.9988 14.3022L24.1502 6.15079C24.6189 5.68216 25.3787 5.68216 25.8473 6.15079C26.3159 6.61941 26.3159 7.37921 25.8473 7.84784L17.6958 15.9993L25.8473 24.1507C26.3159 24.6194 26.3159 25.3792 25.8473 25.8478C25.3787 26.3164 24.6189 26.3164 24.1502 25.8478L15.9988 17.6963L7.84735 25.8478C7.37872 26.3164 6.61893 26.3164 6.1503 25.8478C5.68167 25.3792 5.68167 24.6194 6.1503 24.1507L14.3017 15.9993L6.1503 7.84784C5.68167 7.37921 5.68167 6.61941 6.1503 6.15079Z" fill="#171719"/>
</svg>
