<svg width="28" height="41" viewBox="0 0 28 41" fill="none" xmlns="http://www.w3.org/2000/svg">
<path d="M4.42546 6.29744C4.45967 4.78797 6.13317 3.89815 7.40371 4.71387L9.17025 5.84804C10.4142 6.64667 10.3385 8.48899 9.03334 9.18297L7.21923 10.1476C5.91404 10.8415 4.3444 9.87403 4.37789 8.39618L4.42546 6.29744Z" fill="#ECC8A8"/>
<mask id="mask0_3339_9452" style="mask-type:alpha" maskUnits="userSpaceOnUse" x="4" y="4" width="7" height="7">
<path d="M4.42546 6.29744C4.45967 4.78797 6.13317 3.89815 7.40371 4.71387L9.17025 5.84804C10.4142 6.64667 10.3385 8.48899 9.03334 9.18297L7.21923 10.1476C5.91404 10.8415 4.3444 9.87403 4.37789 8.39618L4.42546 6.29744Z" fill="#545760"/>
</mask>
<g mask="url(#mask0_3339_9452)">
<rect x="1.91016" y="4.44922" width="6.1764" height="2.59625" transform="rotate(-28 1.91016 4.44922)" fill="#545760"/>
</g>
<rect x="4.60352" y="11.1836" width="7.64697" height="23.2701" transform="rotate(-28 4.60352 11.1836)" fill="#66809F"/>
<path d="M17.7785 35.962C17.5826 35.5936 17.7225 35.1361 18.0909 34.9402L23.5086 32.0596C23.877 31.8637 24.3345 32.0036 24.5304 32.372L24.8636 32.9986C25.8549 34.863 25.1471 37.1781 23.2826 38.1695V38.1695C21.4182 39.1609 19.103 38.4531 18.1117 36.5886L17.7785 35.962Z" fill="#CCD5DF"/>
<rect x="14.8652" y="31.3184" width="8.33323" height="5.57712" rx="1.1051" transform="rotate(-28 14.8652 31.3184)" fill="#B5BBCB"/>
<rect x="15.1934" y="32.5605" width="8.92146" height="0.769258" rx="0.384629" transform="rotate(-28 15.1934 32.5605)" fill="#C3CBDA"/>
<rect x="16.1875" y="34.4316" width="8.92146" height="0.769258" rx="0.384629" transform="rotate(-28 16.1875 34.4316)" fill="#C3CBDA"/>
</svg>
