<svg width="187" height="131" viewBox="0 0 187 131" fill="none" xmlns="http://www.w3.org/2000/svg">
<g id="Group 1000003142">
<path id="Vector 206" d="M34.4283 102.773C13.2668 104.558 6.49386 84.2192 5.75257 73.8265C5.60965 68.2822 6.98054 55.5421 13.6074 48.9357C21.891 40.6778 36.9928 31.4306 53.8018 34.8195C70.6108 38.2084 92.7945 33.6984 107.248 32.3574C121.701 31.0165 127.889 26.1177 152.7 27.3377C177.51 28.5577 184.841 48.4736 178.628 69.9135C172.414 91.3534 156.231 94.2368 144.416 94.2185C132.601 94.2002 133.059 91.9287 117.964 96.4497C102.87 100.971 95.7842 98.5966 79.1474 101.388C62.5105 104.18 60.8802 100.542 34.4283 102.773Z" fill="#29432A"/>
</g>
</svg>
