<svg width="578" height="379" viewBox="0 0 578 379" fill="none" xmlns="http://www.w3.org/2000/svg">
<path d="M281.034 32.5417C293.719 42.0398 298.4 68.1596 299.155 80.0322C360.311 82.2937 420.524 97.1815 442.985 104.343L452.046 115.085C475.149 125.035 503.575 162.198 514.901 179.536L516.033 169.359C525.093 167.098 533.776 172.94 536.985 176.144L534.72 196.497C537.362 197.062 545.026 198.871 554.539 201.585C564.052 204.299 567.94 209.5 568.695 211.761C583.984 248.51 572.093 330.488 561.9 339.533C551.708 348.579 541.515 344.622 527.358 344.056C516.033 343.604 512.447 327.284 512.069 319.18L425.997 323.703C418.636 374.02 395.986 377.978 368.805 376.847C347.061 375.943 336.717 353.102 334.263 341.795L187.035 334.445C185.336 341.229 175.71 359.886 141.734 361.017C114.554 361.922 104.738 330.111 103.228 314.092L80.5778 309.004C68.7996 289.555 71.8952 208.181 74.9152 169.925L83.4092 164.836L115.686 77.2053L48.8672 57.4176L3 32.5417C7.9831 14.9025 93.7906 4.83902 136.071 2.0122C155.891 1.44683 265.179 20.6691 281.034 32.5417Z" stroke="#C3C3C3" stroke-width="4"/>
</svg>
