<svg width="1440" height="660" viewBox="0 0 1440 660" fill="none" xmlns="http://www.w3.org/2000/svg">
<g clip-path="url(#clip0_2425_1564)">
<g clip-path="url(#clip1_2425_1564)" filter="url(#filter0_ddd_2425_1564)">
<rect width="1430" height="480" transform="translate(5 120)" fill="white"/>
<g opacity="0.8">
<g filter="url(#filter1_i_2425_1564)">
<rect x="714" y="360" width="720" height="240" fill="url(#paint0_linear_2425_1564)"/>
</g>
<g filter="url(#filter2_i_2425_1564)">
<rect x="-6" y="360" width="720" height="240" fill="url(#paint1_linear_2425_1564)"/>
</g>
<g filter="url(#filter3_i_2425_1564)">
<rect x="714" y="120" width="720" height="240" fill="url(#paint2_linear_2425_1564)"/>
</g>
<g filter="url(#filter4_i_2425_1564)">
<rect x="-6" y="120" width="720" height="240" fill="url(#paint3_linear_2425_1564)"/>
</g>
</g>
<path fill-rule="evenodd" clip-rule="evenodd" d="M974.318 523.589C972.258 526.815 969.262 532.508 969.449 539.339C969.626 545.79 971.598 547.782 972.911 549.109C972.943 549.142 972.975 549.174 973.007 549.207H979H984.992C985.024 549.174 985.056 549.142 985.089 549.109C986.402 547.782 988.373 545.79 988.55 539.339C988.737 532.508 985.741 526.815 983.681 523.589H979H974.318Z" fill="#D9D9D9"/>
<path d="M983.588 520.258C984.735 519.939 986.985 520.198 988.75 522.552C990.471 524.846 989.897 526.356 989.897 530.008C989.897 533.449 991.235 540.714 991.618 542.817C992 544.92 992.627 547.926 991.044 549.508C989.515 551.037 987.221 550.846 986.456 550.846" stroke="#A3A2A2" stroke-width="1.52941" stroke-linecap="round"/>
<path d="M974.479 520.258C973.332 519.939 971.083 520.198 969.318 522.552C967.597 524.846 968.171 526.356 968.171 530.008C968.171 533.449 966.832 540.714 966.45 542.817C966.068 544.92 965.441 547.926 967.024 549.508C968.553 551.037 970.847 550.846 971.612 550.846" stroke="#A3A2A2" stroke-width="1.52941" stroke-linecap="round"/>
<rect x="973.265" y="520.529" width="11.4706" height="3.44118" rx="1.72059" fill="#9A4B22"/>
<rect x="973.647" y="519" width="10.7059" height="1.91176" rx="0.955882" fill="#9A4B22"/>
<path d="M975.559 517.853C975.559 516.375 976.757 515.177 978.235 515.177H979.382C980.86 515.177 982.059 516.375 982.059 517.853V519C982.059 519.423 981.716 519.765 981.294 519.765H976.323C975.901 519.765 975.559 519.423 975.559 519V517.853Z" fill="#9A4B22"/>
<path d="M985.5 520.147C985.5 512.334 982.59 506 979 506C975.41 506 972.5 512.334 972.5 520.147" stroke="#A3A2A2" stroke-width="1.52941" stroke-linecap="round"/>
<path d="M983.97 541.368C983.97 546.331 979 550.353 979 550.353C979 550.353 974.029 546.331 974.029 541.368C974.029 536.406 979 532.383 979 532.383C979 532.383 983.97 536.406 983.97 541.368Z" fill="#FC9D95"/>
<path d="M981.677 544.426C981.677 547.277 979 549.588 979 549.588C979 549.588 976.324 547.277 976.324 544.426C976.324 541.576 979 539.265 979 539.265C979 539.265 981.677 541.576 981.677 544.426Z" fill="#FD2B10"/>
<rect x="970.971" y="549.206" width="15.6765" height="4.58824" rx="1.91176" fill="#9A4B22"/>
<path d="M969.059 554.176C969.059 553.121 969.915 552.265 970.97 552.265H986.647C987.703 552.265 988.559 553.121 988.559 554.176V558H969.059V554.176Z" fill="#9A4B22"/>
<path d="M1435.5 310C1321.5 401 1389.5 541.5 1249.5 538.5" stroke="#E9B190" stroke-width="3" stroke-linecap="round" stroke-dasharray="15 15"/>
<rect x="1" y="117" width="1434" height="483" fill="white" fill-opacity="0.16"/>
</g>
<path fill-rule="evenodd" clip-rule="evenodd" d="M1131.23 506.329H1145.3V558.085H1131.23C1123.9 558.085 1117.96 546.499 1117.96 532.207C1117.96 517.915 1123.9 506.329 1131.23 506.329Z" fill="#130B0B"/>
<path fill-rule="evenodd" clip-rule="evenodd" d="M1042.05 506.329H1056.12V558.085H1042.05C1034.72 558.085 1028.78 546.499 1028.78 532.207C1028.78 517.915 1034.72 506.329 1042.05 506.329Z" fill="#130B0B"/>
<path fill-rule="evenodd" clip-rule="evenodd" d="M1221.21 506.329H1235.28V558.085H1221.21C1213.88 558.085 1207.94 546.499 1207.94 532.207C1207.94 517.915 1213.88 506.329 1221.21 506.329Z" fill="#130B0B"/>
<path d="M1096.84 450.228L1169.98 449L1154.06 488.68H1055.32L1074.96 461.615C1080.06 454.592 1088.16 450.374 1096.84 450.228Z" fill="url(#paint4_linear_2425_1564)"/>
<path fill-rule="evenodd" clip-rule="evenodd" d="M1153.66 489.077C1144.96 489.714 1120.09 499.296 1108.67 504.206V549.327H1132.13C1129.75 544.765 1128.31 538.772 1128.31 532.208C1128.31 517.916 1135.15 506.33 1143.57 506.33C1152 506.33 1158.84 517.916 1158.84 532.208C1158.84 538.772 1157.4 544.765 1155.02 549.327H1221.11C1218.69 544.765 1217.23 538.772 1217.23 532.208C1217.23 517.916 1224.18 506.33 1232.75 506.33C1241.33 506.33 1248.28 517.916 1248.28 532.208C1248.28 538.772 1246.82 544.765 1244.4 549.327H1248.55C1248.55 549.327 1252 536.322 1254.92 518.937C1257.84 501.552 1258.5 489.077 1258.5 489.077C1255 479.416 1235.9 461.872 1226.78 454.308C1209.48 450.911 1184.45 449 1169.98 449L1153.66 489.077Z" fill="url(#paint5_linear_2425_1564)"/>
<ellipse cx="1145.57" cy="532.207" rx="13.2708" ry="25.878" fill="#321414"/>
<ellipse cx="1145.57" cy="533.003" rx="7.96247" ry="17.1193" fill="#130B0B"/>
<ellipse cx="1056.39" cy="532.207" rx="13.2708" ry="25.878" fill="#321414"/>
<ellipse cx="1056.39" cy="533.003" rx="7.96247" ry="17.1193" fill="#130B0B"/>
<ellipse cx="1235.01" cy="532.207" rx="13.2708" ry="25.878" fill="#321414"/>
<ellipse cx="1235.01" cy="533.003" rx="7.96247" ry="17.1193" fill="#130B0B"/>
<path d="M1160.43 489.211L1171.38 456.482C1172.4 453.414 1174.99 451.119 1178.23 451.043C1190.87 450.747 1214.02 454.487 1225.46 456.697C1232.25 460.838 1248.28 480.098 1255.45 489.211H1160.43Z" fill="#020716"/>
<path d="M1153.79 488.812L1055.32 488.414C1055.32 488.414 1040.96 491.623 1032.1 494.784C1023.62 497.81 1012.33 504.604 1012.33 504.604L1107.43 504.227C1110.89 504.213 1114.31 503.586 1117.55 502.376L1153.79 488.812Z" fill="url(#paint6_linear_2425_1564)"/>
<g clip-path="url(#clip2_2425_1564)">
<path d="M1011 506.86C1011 505.394 1012.19 504.206 1013.65 504.206H1110C1111.47 504.206 1112.65 505.394 1112.65 506.86V546.673C1112.65 548.138 1111.47 549.327 1110 549.327H1016.84C1013.61 549.327 1011 546.712 1011 543.488V506.86Z" fill="url(#paint7_linear_2425_1564)"/>
<path d="M1011 506.86C1011 505.394 1012.19 504.206 1013.65 504.206H1110C1111.47 504.206 1112.65 505.394 1112.65 506.86V546.673C1112.65 548.138 1111.47 549.327 1110 549.327H1013.65C1012.19 549.327 1011 548.138 1011 546.673V506.86Z" fill="url(#paint8_linear_2425_1564)"/>
<path fill-rule="evenodd" clip-rule="evenodd" d="M1011 504.472C1011 504.326 1011.12 504.207 1011.27 504.207H1013.92C1014.07 504.207 1014.18 504.326 1014.18 504.472V511.373C1014.18 511.52 1014.07 511.639 1013.92 511.639H1011.27C1011.12 511.639 1011 511.52 1011 511.373V504.472ZM1022.94 504.472C1022.94 504.326 1023.06 504.207 1023.21 504.207H1026.13C1026.28 504.207 1026.39 504.326 1026.39 504.472V511.373C1026.39 511.52 1026.28 511.639 1026.13 511.639H1023.21C1023.06 511.639 1022.94 511.52 1022.94 511.373V504.472ZM1023.21 514.293C1023.06 514.293 1022.94 514.412 1022.94 514.558V521.459C1022.94 521.606 1023.06 521.724 1023.21 521.724H1026.13C1026.28 521.724 1026.39 521.606 1026.39 521.459V514.558C1026.39 514.412 1026.28 514.293 1026.13 514.293H1023.21ZM1011 514.558C1011 514.412 1011.12 514.293 1011.27 514.293H1013.92C1014.07 514.293 1014.18 514.412 1014.18 514.558V521.459C1014.18 521.606 1014.07 521.724 1013.92 521.724H1011.27C1011.12 521.724 1011 521.606 1011 521.459V514.558ZM1014.72 511.639C1014.57 511.639 1014.45 511.757 1014.45 511.904V513.881C1014.45 514.028 1014.57 514.147 1014.72 514.147H1022.55C1022.69 514.147 1022.81 514.028 1022.81 513.881V511.904C1022.81 511.757 1022.69 511.639 1022.55 511.639H1014.72ZM1026.66 511.904C1026.66 511.757 1026.78 511.639 1026.92 511.639H1095.93C1096.08 511.639 1096.2 511.757 1096.2 511.904V513.762C1096.2 513.909 1096.08 514.027 1095.93 514.027H1026.92C1026.78 514.027 1026.66 513.909 1026.66 513.762V511.904ZM1109.47 504.207C1109.32 504.207 1109.2 504.326 1109.2 504.472V511.373C1109.2 511.52 1109.32 511.639 1109.47 511.639H1112.39C1112.54 511.639 1112.65 511.52 1112.65 511.373V504.472C1112.65 504.326 1112.54 504.207 1112.39 504.207H1109.47ZM1097.26 504.472C1097.26 504.326 1097.38 504.207 1097.53 504.207H1100.18C1100.33 504.207 1100.45 504.326 1100.45 504.472V511.373C1100.45 511.52 1100.33 511.639 1100.18 511.639H1097.53C1097.38 511.639 1097.26 511.52 1097.26 511.373V504.472ZM1109.47 514.293C1109.32 514.293 1109.2 514.412 1109.2 514.558V521.459C1109.2 521.606 1109.32 521.724 1109.47 521.724H1112.39C1112.54 521.724 1112.65 521.606 1112.65 521.459V514.558C1112.65 514.412 1112.54 514.293 1112.39 514.293H1109.47ZM1097.26 514.558C1097.26 514.412 1097.38 514.293 1097.53 514.293H1100.18C1100.33 514.293 1100.45 514.412 1100.45 514.558V521.459C1100.45 521.606 1100.33 521.724 1100.18 521.724H1097.53C1097.38 521.724 1097.26 521.606 1097.26 521.459V514.558ZM1100.98 511.639C1100.83 511.639 1100.71 511.757 1100.71 511.904V513.881C1100.71 514.028 1100.83 514.147 1100.98 514.147H1108.81C1108.95 514.147 1109.07 514.028 1109.07 513.881V511.904C1109.07 511.757 1108.95 511.639 1108.81 511.639H1100.98Z" fill="url(#paint9_linear_2425_1564)"/>
<path fill-rule="evenodd" clip-rule="evenodd" d="M1011 527.828C1011 527.242 1011.48 526.767 1012.06 526.767H1016.45C1017.04 526.767 1017.52 527.242 1017.52 527.828V531.7C1017.52 532.286 1017.99 532.762 1018.58 532.762L1094.39 532.762C1094.98 532.762 1095.45 532.286 1095.45 531.7V527.828C1095.45 527.242 1095.93 526.767 1096.51 526.767H1111.59C1112.18 526.767 1112.65 527.242 1112.65 527.828V548.382C1112.65 548.968 1112.18 549.444 1111.59 549.444H1096.51C1095.93 549.444 1095.45 548.968 1095.45 548.382V540.34C1095.45 539.753 1094.98 539.278 1094.39 539.278L1018.58 539.278C1017.99 539.278 1017.52 539.753 1017.52 540.34V548.382C1017.52 548.968 1017.04 549.443 1016.45 549.443H1012.06C1011.48 549.443 1011 548.968 1011 548.382V527.828Z" fill="url(#paint10_linear_2425_1564)"/>
</g>
<path d="M145.29 4C124.29 57.8333 104.781 137.765 158.5 180C257.711 258 407.409 156.157 586.29 96C867.29 1.5 1241.5 39 1336 119.5" stroke="#E9B190" stroke-width="3" stroke-linecap="round" stroke-dasharray="15 15"/>
<g filter="url(#filter5_ddd_2425_1564)">
<path d="M85.4273 157.773C64.2659 159.558 57.4929 139.219 56.7516 128.826C56.6087 123.282 57.9796 110.542 64.6064 103.936C72.8901 95.6778 87.9918 86.4306 104.801 89.8195C121.61 93.2084 143.794 88.6984 158.247 87.3574C172.7 86.0165 178.888 81.1177 203.699 82.3377C228.509 83.5577 235.84 103.474 229.627 124.913C223.413 146.353 207.231 149.237 195.415 149.218C183.6 149.2 184.058 146.929 168.963 151.45C153.869 155.971 146.783 153.597 130.146 156.388C113.51 159.18 111.879 155.542 85.4273 157.773Z" fill="#BE4F2B"/>
<path d="M106.877 105.848C107.81 105.548 108.593 105.481 109.227 105.648C109.56 105.714 110.21 105.798 111.177 105.898C113.543 106.131 115.76 107.331 117.827 109.498C119.927 111.664 120.977 113.881 120.977 116.148C120.977 117.148 120.627 118.581 119.927 120.448C119.26 122.314 118.493 123.881 117.627 125.148C116.86 126.281 116.393 127.014 116.227 127.348C116.093 127.681 116.043 128.048 116.077 128.448C116.11 128.814 116.36 129.448 116.827 130.348C117.293 131.248 117.71 131.964 118.077 132.498C118.643 133.231 118.943 133.764 118.977 134.098C119.043 134.431 118.877 134.798 118.477 135.198C117.51 136.131 116.46 135.881 115.327 134.448C114.827 133.814 114.277 132.931 113.677 131.798C113.443 131.331 113.193 131.098 112.927 131.098C112.66 131.098 112.143 131.314 111.377 131.748C108.977 133.114 106.577 133.814 104.177 133.848C101.81 133.848 99.6432 133.164 97.6766 131.798C95.7766 130.498 94.7266 128.798 94.5266 126.698C94.3266 124.598 94.8932 121.414 96.2266 117.148C97.0266 114.581 98.4266 112.231 100.427 110.098C102.46 107.964 104.61 106.548 106.877 105.848ZM109.527 109.298C108.493 108.764 107.26 108.914 105.827 109.748C104.393 110.548 103.077 111.831 101.877 113.598C100.71 115.331 99.9266 117.198 99.5266 119.198C99.3932 119.664 99.2766 120.031 99.1766 120.298C98.7432 121.498 98.4766 123.064 98.3766 124.998C98.3099 126.631 98.5266 127.764 99.0266 128.398C99.5266 128.998 100.727 129.531 102.627 129.998C103.427 130.198 104.493 130.198 105.827 129.998C107.16 129.798 108.193 129.481 108.927 129.048C109.793 128.548 110.343 128.131 110.577 127.798C110.81 127.431 110.81 127.031 110.577 126.598C110.377 126.131 109.86 125.431 109.027 124.498C107.86 123.231 107.21 122.298 107.077 121.698C106.977 121.098 107.343 120.581 108.177 120.148C108.61 119.948 108.993 119.948 109.327 120.148C109.693 120.348 110.227 120.898 110.927 121.798C111.56 122.598 112.043 123.164 112.377 123.498C112.71 123.798 113.043 123.914 113.377 123.848C113.743 123.781 114.06 123.548 114.327 123.148C114.593 122.714 114.977 121.998 115.477 120.998C117.443 116.931 117.41 113.948 115.377 112.048C114.61 111.348 113.927 110.848 113.327 110.548C112.76 110.214 112.043 109.964 111.177 109.798C110.443 109.631 109.893 109.464 109.527 109.298ZM125.43 105.998C126.297 105.631 126.964 105.964 127.43 106.998C127.597 107.364 127.68 107.731 127.68 108.098C127.68 108.464 127.564 109.231 127.33 110.398C126.697 114.164 126.38 117.898 126.38 121.598C126.38 123.198 126.397 124.231 126.43 124.698C126.497 125.164 126.68 125.998 126.98 127.198C127.214 128.098 127.93 129.014 129.13 129.948C130.33 130.881 131.58 131.464 132.88 131.698C135.18 132.164 137.247 131.781 139.08 130.548C140.914 129.314 142.264 127.398 143.13 124.798C143.33 124.231 143.48 123.814 143.58 123.548C143.98 122.614 144.247 121.781 144.38 121.048C144.414 120.881 144.514 120.448 144.68 119.748C144.88 118.948 145.014 118.348 145.08 117.948C145.214 117.214 145.347 116.648 145.48 116.248C145.78 115.114 146.014 113.714 146.18 112.048C146.214 111.448 146.264 111.098 146.33 110.998C146.397 110.931 146.48 110.564 146.58 109.898C146.814 108.498 147.297 107.598 148.03 107.198C148.797 106.798 149.547 107.064 150.28 107.998C150.447 108.231 150.564 108.648 150.63 109.248C150.697 109.848 150.647 110.264 150.48 110.498C150.414 110.698 150.347 111.098 150.28 111.698C150.214 112.298 150.13 112.814 150.03 113.248C149.897 113.648 149.814 114.098 149.78 114.598C149.714 115.098 149.63 115.414 149.53 115.548C149.464 115.714 149.397 116.031 149.33 116.498C149.23 116.964 149.114 117.464 148.98 117.998C148.847 118.464 148.68 119.214 148.48 120.248C148.314 120.948 147.997 121.998 147.53 123.398C147.097 124.764 146.78 125.631 146.58 125.998C146.514 126.098 146.397 126.398 146.23 126.898C145.997 127.664 145.88 128.081 145.88 128.148C145.48 129.448 144.264 130.948 142.23 132.648C140.197 134.314 138.43 135.281 136.93 135.548C135.297 135.848 133.764 135.814 132.33 135.448C130.93 135.114 129.447 134.414 127.88 133.348C126.514 132.448 125.48 131.598 124.78 130.798C124.114 129.964 123.614 129.014 123.28 127.948C123.247 127.848 123.18 127.681 123.08 127.448C123.014 127.181 122.964 126.998 122.93 126.898C122.83 126.631 122.747 126.198 122.68 125.598C122.614 125.031 122.53 124.514 122.43 124.048C122.297 123.548 122.23 122.798 122.23 121.798C122.23 120.798 122.297 120.014 122.43 119.448C122.53 118.881 122.614 117.998 122.68 116.798C122.747 115.264 122.98 113.648 123.38 111.948C123.614 110.781 123.764 109.898 123.83 109.298C124.13 107.431 124.664 106.331 125.43 105.998ZM158.139 106.148C158.572 105.781 159.055 105.681 159.589 105.848C160.155 105.981 160.572 106.314 160.839 106.848C161.005 107.181 161.089 107.514 161.089 107.848C161.089 108.181 160.989 108.764 160.789 109.598C160.522 110.731 160.322 111.698 160.189 112.498C159.922 113.931 159.739 114.848 159.639 115.248C159.472 116.148 159.372 116.664 159.339 116.798C159.305 117.098 159.172 117.748 158.939 118.748C158.705 119.948 158.539 120.814 158.439 121.348C158.272 122.214 158.089 123.081 157.889 123.948C157.655 125.048 157.505 125.881 157.439 126.448C157.372 127.048 157.272 127.581 157.139 128.048C157.039 128.414 156.922 128.981 156.789 129.748C156.455 132.148 156.089 133.748 155.689 134.548C155.289 135.348 154.672 135.748 153.839 135.748C153.105 135.748 152.555 135.364 152.189 134.598C151.822 133.798 151.772 132.864 152.039 131.798C152.172 131.298 152.322 130.548 152.489 129.548C153.055 126.514 153.555 124.098 153.989 122.298C154.022 122.098 154.072 121.831 154.139 121.498C154.239 121.164 154.305 120.948 154.339 120.848C154.639 119.481 154.805 118.714 154.839 118.548C154.905 118.214 155.055 117.414 155.289 116.148C155.522 114.881 155.722 113.914 155.889 113.248C156.022 112.548 156.122 111.948 156.189 111.448C156.255 111.048 156.355 110.648 156.489 110.248C156.589 109.881 156.689 109.414 156.789 108.848C157.055 107.514 157.505 106.614 158.139 106.148ZM164.507 106.248C165.374 106.048 166.691 106.064 168.457 106.298C170.691 106.564 172.657 106.748 174.357 106.848C179.157 107.148 182.124 107.398 183.257 107.598C183.924 107.698 184.557 107.798 185.157 107.898C186.257 108.098 186.991 108.614 187.357 109.448C187.591 109.981 187.557 110.481 187.257 110.948C186.957 111.414 185.824 112.681 183.857 114.748C183.124 115.514 182.591 116.098 182.257 116.498C181.824 116.998 181.057 117.798 179.957 118.898C177.624 121.298 176.041 122.998 175.207 123.998C174.707 124.564 174.224 125.131 173.757 125.698C173.257 126.264 172.491 127.114 171.457 128.248C170.424 129.314 169.757 130.164 169.457 130.798C169.157 131.364 169.041 131.714 169.107 131.848C169.174 131.981 169.457 132.048 169.957 132.048C170.557 132.014 173.174 131.948 177.807 131.848C184.207 131.714 188.074 131.664 189.407 131.698C190.774 131.731 191.574 131.848 191.807 132.048C192.674 132.881 192.707 133.631 191.907 134.298C191.341 134.764 190.407 135.064 189.107 135.198C187.841 135.298 183.874 135.414 177.207 135.548C173.207 135.614 169.974 135.681 167.507 135.748C165.507 135.781 164.224 135.714 163.657 135.548C163.124 135.414 162.724 134.998 162.457 134.298C162.257 133.798 162.424 133.181 162.957 132.448C163.524 131.681 164.841 130.231 166.907 128.098C168.474 126.431 169.874 124.914 171.107 123.548C172.207 122.281 174.091 120.281 176.757 117.548C179.224 115.014 180.741 113.381 181.307 112.648C181.874 111.881 182.041 111.298 181.807 110.898C181.607 110.631 179.891 110.414 176.657 110.248C175.057 110.181 173.924 110.098 173.257 109.998C172.757 109.931 171.841 109.848 170.507 109.748C169.441 109.648 168.624 109.531 168.057 109.398C167.424 109.264 166.791 109.198 166.157 109.198C164.724 109.198 163.757 108.781 163.257 107.948C162.857 107.281 163.107 106.764 164.007 106.398C164.141 106.331 164.307 106.281 164.507 106.248Z" fill="white"/>
</g>
</g>
<defs>
<filter id="filter0_ddd_2425_1564" x="-3" y="114" width="1446" height="496" filterUnits="userSpaceOnUse" color-interpolation-filters="sRGB">
<feFlood flood-opacity="0" result="BackgroundImageFix"/>
<feColorMatrix in="SourceAlpha" type="matrix" values="0 0 0 0 0 0 0 0 0 0 0 0 0 0 0 0 0 0 127 0" result="hardAlpha"/>
<feOffset/>
<feGaussianBlur stdDeviation="0.5"/>
<feComposite in2="hardAlpha" operator="out"/>
<feColorMatrix type="matrix" values="0 0 0 0 0 0 0 0 0 0 0 0 0 0 0 0 0 0 0.08 0"/>
<feBlend mode="normal" in2="BackgroundImageFix" result="effect1_dropShadow_2425_1564"/>
<feColorMatrix in="SourceAlpha" type="matrix" values="0 0 0 0 0 0 0 0 0 0 0 0 0 0 0 0 0 0 127 0" result="hardAlpha"/>
<feOffset dy="1"/>
<feGaussianBlur stdDeviation="2"/>
<feComposite in2="hardAlpha" operator="out"/>
<feColorMatrix type="matrix" values="0 0 0 0 0 0 0 0 0 0 0 0 0 0 0 0 0 0 0.08 0"/>
<feBlend mode="normal" in2="effect1_dropShadow_2425_1564" result="effect2_dropShadow_2425_1564"/>
<feColorMatrix in="SourceAlpha" type="matrix" values="0 0 0 0 0 0 0 0 0 0 0 0 0 0 0 0 0 0 127 0" result="hardAlpha"/>
<feOffset dy="2"/>
<feGaussianBlur stdDeviation="4"/>
<feComposite in2="hardAlpha" operator="out"/>
<feColorMatrix type="matrix" values="0 0 0 0 0 0 0 0 0 0 0 0 0 0 0 0 0 0 0.12 0"/>
<feBlend mode="normal" in2="effect2_dropShadow_2425_1564" result="effect3_dropShadow_2425_1564"/>
<feBlend mode="normal" in="SourceGraphic" in2="effect3_dropShadow_2425_1564" result="shape"/>
</filter>
<filter id="filter1_i_2425_1564" x="714" y="360" width="726" height="245" filterUnits="userSpaceOnUse" color-interpolation-filters="sRGB">
<feFlood flood-opacity="0" result="BackgroundImageFix"/>
<feBlend mode="normal" in="SourceGraphic" in2="BackgroundImageFix" result="shape"/>
<feColorMatrix in="SourceAlpha" type="matrix" values="0 0 0 0 0 0 0 0 0 0 0 0 0 0 0 0 0 0 127 0" result="hardAlpha"/>
<feOffset dx="6" dy="5"/>
<feGaussianBlur stdDeviation="5.55"/>
<feComposite in2="hardAlpha" operator="arithmetic" k2="-1" k3="1"/>
<feColorMatrix type="matrix" values="0 0 0 0 0.846224 0 0 0 0 0.821432 0 0 0 0 0.780113 0 0 0 0.28 0"/>
<feBlend mode="normal" in2="shape" result="effect1_innerShadow_2425_1564"/>
</filter>
<filter id="filter2_i_2425_1564" x="-6" y="360" width="727" height="245" filterUnits="userSpaceOnUse" color-interpolation-filters="sRGB">
<feFlood flood-opacity="0" result="BackgroundImageFix"/>
<feBlend mode="normal" in="SourceGraphic" in2="BackgroundImageFix" result="shape"/>
<feColorMatrix in="SourceAlpha" type="matrix" values="0 0 0 0 0 0 0 0 0 0 0 0 0 0 0 0 0 0 127 0" result="hardAlpha"/>
<feOffset dx="7" dy="5"/>
<feGaussianBlur stdDeviation="5.55"/>
<feComposite in2="hardAlpha" operator="arithmetic" k2="-1" k3="1"/>
<feColorMatrix type="matrix" values="0 0 0 0 0.846224 0 0 0 0 0.821432 0 0 0 0 0.780113 0 0 0 0.23 0"/>
<feBlend mode="normal" in2="shape" result="effect1_innerShadow_2425_1564"/>
</filter>
<filter id="filter3_i_2425_1564" x="714" y="120" width="726" height="245" filterUnits="userSpaceOnUse" color-interpolation-filters="sRGB">
<feFlood flood-opacity="0" result="BackgroundImageFix"/>
<feBlend mode="normal" in="SourceGraphic" in2="BackgroundImageFix" result="shape"/>
<feColorMatrix in="SourceAlpha" type="matrix" values="0 0 0 0 0 0 0 0 0 0 0 0 0 0 0 0 0 0 127 0" result="hardAlpha"/>
<feOffset dx="6" dy="5"/>
<feGaussianBlur stdDeviation="5.55"/>
<feComposite in2="hardAlpha" operator="arithmetic" k2="-1" k3="1"/>
<feColorMatrix type="matrix" values="0 0 0 0 0.991829 0 0 0 0 0.983342 0 0 0 0 0.969197 0 0 0 1 0"/>
<feBlend mode="normal" in2="shape" result="effect1_innerShadow_2425_1564"/>
</filter>
<filter id="filter4_i_2425_1564" x="-9" y="120" width="723" height="245" filterUnits="userSpaceOnUse" color-interpolation-filters="sRGB">
<feFlood flood-opacity="0" result="BackgroundImageFix"/>
<feBlend mode="normal" in="SourceGraphic" in2="BackgroundImageFix" result="shape"/>
<feColorMatrix in="SourceAlpha" type="matrix" values="0 0 0 0 0 0 0 0 0 0 0 0 0 0 0 0 0 0 127 0" result="hardAlpha"/>
<feOffset dx="-3" dy="5"/>
<feGaussianBlur stdDeviation="5.55"/>
<feComposite in2="hardAlpha" operator="arithmetic" k2="-1" k3="1"/>
<feColorMatrix type="matrix" values="0 0 0 0 0.933024 0 0 0 0 0.91561 0 0 0 0 0.886585 0 0 0 1 0"/>
<feBlend mode="normal" in2="shape" result="effect1_innerShadow_2425_1564"/>
</filter>
<filter id="filter5_ddd_2425_1564" x="32" y="44" width="224" height="164" filterUnits="userSpaceOnUse" color-interpolation-filters="sRGB">
<feFlood flood-opacity="0" result="BackgroundImageFix"/>
<feColorMatrix in="SourceAlpha" type="matrix" values="0 0 0 0 0 0 0 0 0 0 0 0 0 0 0 0 0 0 127 0" result="hardAlpha"/>
<feOffset/>
<feGaussianBlur stdDeviation="2"/>
<feComposite in2="hardAlpha" operator="out"/>
<feColorMatrix type="matrix" values="0 0 0 0 0 0 0 0 0 0 0 0 0 0 0 0 0 0 0.08 0"/>
<feBlend mode="normal" in2="BackgroundImageFix" result="effect1_dropShadow_2425_1564"/>
<feColorMatrix in="SourceAlpha" type="matrix" values="0 0 0 0 0 0 0 0 0 0 0 0 0 0 0 0 0 0 127 0" result="hardAlpha"/>
<feOffset dy="4"/>
<feGaussianBlur stdDeviation="4"/>
<feComposite in2="hardAlpha" operator="out"/>
<feColorMatrix type="matrix" values="0 0 0 0 0 0 0 0 0 0 0 0 0 0 0 0 0 0 0.08 0"/>
<feBlend mode="normal" in2="effect1_dropShadow_2425_1564" result="effect2_dropShadow_2425_1564"/>
<feColorMatrix in="SourceAlpha" type="matrix" values="0 0 0 0 0 0 0 0 0 0 0 0 0 0 0 0 0 0 127 0" result="hardAlpha"/>
<feOffset dy="6"/>
<feGaussianBlur stdDeviation="6"/>
<feComposite in2="hardAlpha" operator="out"/>
<feColorMatrix type="matrix" values="0 0 0 0 0 0 0 0 0 0 0 0 0 0 0 0 0 0 0.12 0"/>
<feBlend mode="normal" in2="effect2_dropShadow_2425_1564" result="effect3_dropShadow_2425_1564"/>
<feBlend mode="normal" in="SourceGraphic" in2="effect3_dropShadow_2425_1564" result="shape"/>
</filter>
<linearGradient id="paint0_linear_2425_1564" x1="714" y1="360" x2="893.321" y2="839.407" gradientUnits="userSpaceOnUse">
<stop stop-color="#ECE7E3"/>
<stop offset="1" stop-color="#F1EEE9"/>
</linearGradient>
<linearGradient id="paint1_linear_2425_1564" x1="741.914" y1="353.486" x2="583.616" y2="820.186" gradientUnits="userSpaceOnUse">
<stop stop-color="#ECE7E3"/>
<stop offset="1" stop-color="#FEFBF5"/>
</linearGradient>
<linearGradient id="paint2_linear_2425_1564" x1="1461.91" y1="113.486" x2="1303.62" y2="580.186" gradientUnits="userSpaceOnUse">
<stop stop-color="#EFEAE6"/>
<stop offset="1" stop-color="#F8F7F2"/>
</linearGradient>
<linearGradient id="paint3_linear_2425_1564" x1="760.203" y1="379.886" x2="580.882" y2="-99.5215" gradientUnits="userSpaceOnUse">
<stop stop-color="#F9F8F6"/>
<stop offset="1" stop-color="#F8F5F3"/>
</linearGradient>
<linearGradient id="paint4_linear_2425_1564" x1="1169.98" y1="486.689" x2="1077.75" y2="451.654" gradientUnits="userSpaceOnUse">
<stop stop-color="#020716"/>
<stop offset="1" stop-color="#262B3A"/>
</linearGradient>
<linearGradient id="paint5_linear_2425_1564" x1="1131.48" y1="460.946" x2="1259" y2="462.461" gradientUnits="userSpaceOnUse">
<stop stop-color="#752504"/>
<stop offset="1" stop-color="#DB5F39"/>
</linearGradient>
<linearGradient id="paint6_linear_2425_1564" x1="1034.08" y1="490.291" x2="1153.67" y2="498.813" gradientUnits="userSpaceOnUse">
<stop stop-color="#F17A54"/>
<stop offset="1" stop-color="#F27049"/>
</linearGradient>
<linearGradient id="paint7_linear_2425_1564" x1="1026.47" y1="509.579" x2="1112.98" y2="511.129" gradientUnits="userSpaceOnUse">
<stop stop-color="#BF3C1A"/>
<stop offset="1" stop-color="#DB5F39"/>
</linearGradient>
<linearGradient id="paint8_linear_2425_1564" x1="1026.47" y1="509.579" x2="1112.98" y2="511.129" gradientUnits="userSpaceOnUse">
<stop stop-color="#BF3C1A"/>
<stop offset="1" stop-color="#DB5F39"/>
</linearGradient>
<linearGradient id="paint9_linear_2425_1564" x1="1011" y1="509.755" x2="1112.65" y2="509.755" gradientUnits="userSpaceOnUse">
<stop stop-color="#E6A088"/>
<stop offset="1" stop-color="#FCCFC0"/>
</linearGradient>
<linearGradient id="paint10_linear_2425_1564" x1="1043.25" y1="527.828" x2="1114.98" y2="550.65" gradientUnits="userSpaceOnUse">
<stop stop-color="#A83010"/>
<stop offset="1" stop-color="#BA411E"/>
</linearGradient>
<clipPath id="clip0_2425_1564">
<rect width="1440" height="660" fill="white"/>
</clipPath>
<clipPath id="clip1_2425_1564">
<rect width="1430" height="480" fill="white" transform="translate(5 120)"/>
</clipPath>
<clipPath id="clip2_2425_1564">
<path d="M1011 506.86C1011 505.394 1012.19 504.206 1013.65 504.206H1110C1111.47 504.206 1112.65 505.394 1112.65 506.86V546.673C1112.65 548.138 1111.47 549.327 1110 549.327H1016.84C1013.61 549.327 1011 546.712 1011 543.488V506.86Z" fill="white"/>
</clipPath>
</defs>
</svg>
