<svg width="824" height="317" viewBox="0 0 824 317" fill="none" xmlns="http://www.w3.org/2000/svg">
<path d="M11.4942 135.213V165.762L2 178.282V253.902L78.4533 265.922C81.1183 282.114 98.1412 314.499 144.913 314.499C191.684 314.499 208.374 277.774 210.872 259.411H573.151C579.147 277.941 601.733 315 644.107 315C686.482 315 705.403 277.941 709.568 259.411L811.005 241.883L820 226.859L809.506 223.854C823.098 132.108 800.179 59.7589 787.02 35.0528H799.513C777.926 16.2227 749.876 14.1861 738.55 15.5216L734.552 2H395.26L376.271 14.52L343.291 18.0256L207.874 101.659C164.9 98.6544 53.9682 114.68 39.4771 118.186C27.8842 120.99 15.9914 130.706 11.4942 135.213Z" stroke="#AEB0B6" stroke-width="4"/>
</svg>
